<?xml version="1.0" encoding="UTF-8"?>
<svg version="1.1" xmlns="http://www.w3.org/2000/svg" width="360" height="360">
<path d="M0 0 C0.79792969 0.41636719 1.59585938 0.83273438 2.41796875 1.26171875 C3.72314453 1.93267578 3.72314453 1.93267578 5.0546875 2.6171875 C16.68299007 9.10053109 24.33890533 18.85160138 28.35546875 31.63671875 C31.24270188 44.19618287 29.55001399 56.47103736 23.73046875 67.94921875 C19.33549841 74.86052505 13.69044404 80.96270912 6.5625 85.01171875 C0.63376561 88.46744736 -4.87651024 92.70471969 -10 97.2578125 C-10.57532471 97.76554199 -11.15064941 98.27327148 -11.7434082 98.79638672 C-12.8675665 99.79866377 -13.979963 100.81432458 -15.07885742 101.84423828 C-16.63671875 103.234375 -16.63671875 103.234375 -19.58203125 105.26171875 C-21.23203125 104.93171875 -22.88203125 104.60171875 -24.58203125 104.26171875 C-24.58203125 100.30171875 -24.58203125 96.34171875 -24.58203125 92.26171875 C-26.81047339 91.61338985 -29.03981585 90.96815506 -31.26953125 90.32421875 C-32.51089844 89.96457031 -33.75226563 89.60492188 -35.03125 89.234375 C-40.37702158 87.37674126 -40.37702158 87.37674126 -45.58203125 88.26171875 C-49.07509034 88.55784455 -52.57789761 88.53990935 -56.08203125 88.57421875 C-57.03851563 88.60322266 -57.995 88.63222656 -58.98046875 88.66210938 C-71.41624477 88.77163857 -80.45214218 83.45157693 -89.58203125 75.26171875 C-98.60962274 65.21305318 -101.69077335 53.57485847 -101.58203125 40.26171875 C-100.8553594 29.60901867 -95.51346483 18.44958043 -87.58203125 11.26171875 C-76.75402506 2.42636648 -66.5970565 -0.9678006 -52.58203125 -0.73828125 C-50.28276911 -0.41308174 -47.98955474 -0.04042015 -45.70703125 0.38671875 C-39.80484081 1.48429357 -35.97504536 0.72476199 -30.58203125 -1.73828125 C-21.45622332 -4.78021723 -8.69229514 -3.84078157 0 0 Z M-62.58203125 5.26171875 C-64.91536458 6.92838542 -64.91536458 6.92838542 -66.58203125 9.26171875 C-66.58203125 10.25171875 -66.58203125 11.24171875 -66.58203125 12.26171875 C-67.24203125 12.26171875 -67.90203125 12.26171875 -68.58203125 12.26171875 C-68.58203125 12.92171875 -68.58203125 13.58171875 -68.58203125 14.26171875 C-69.24203125 14.26171875 -69.90203125 14.26171875 -70.58203125 14.26171875 C-70.91203125 16.24171875 -71.24203125 18.22171875 -71.58203125 20.26171875 C-67.62203125 20.26171875 -63.66203125 20.26171875 -59.58203125 20.26171875 C-59.25203125 15.64171875 -58.92203125 11.02171875 -58.58203125 6.26171875 C-59.90203125 5.93171875 -61.22203125 5.60171875 -62.58203125 5.26171875 Z M-54.58203125 5.26171875 C-54.25203125 6.91171875 -53.92203125 8.56171875 -53.58203125 10.26171875 C-52.26203125 9.93171875 -50.94203125 9.60171875 -49.58203125 9.26171875 C-49.58203125 8.60171875 -49.58203125 7.94171875 -49.58203125 7.26171875 C-50.24203125 7.26171875 -50.90203125 7.26171875 -51.58203125 7.26171875 C-51.58203125 6.60171875 -51.58203125 5.94171875 -51.58203125 5.26171875 C-52.57203125 5.26171875 -53.56203125 5.26171875 -54.58203125 5.26171875 Z M-74.58203125 8.26171875 C-73.92203125 8.92171875 -73.26203125 9.58171875 -72.58203125 10.26171875 C-72.58203125 9.60171875 -72.58203125 8.94171875 -72.58203125 8.26171875 C-73.24203125 8.26171875 -73.90203125 8.26171875 -74.58203125 8.26171875 Z M-78.58203125 10.26171875 C-78.58203125 10.92171875 -78.58203125 11.58171875 -78.58203125 12.26171875 C-79.15953125 12.34421875 -79.73703125 12.42671875 -80.33203125 12.51171875 C-83.25997726 13.48770075 -84.63447662 14.89683098 -86.58203125 17.26171875 C-86.58203125 18.25171875 -86.58203125 19.24171875 -86.58203125 20.26171875 C-82.55203269 20.59998853 -82.55203269 20.59998853 -78.58203125 20.26171875 C-76.55680932 18.13674128 -76.55680932 18.13674128 -75.58203125 15.26171875 C-75.19015625 14.33359375 -74.79828125 13.40546875 -74.39453125 12.44921875 C-74.12640625 11.72734375 -73.85828125 11.00546875 -73.58203125 10.26171875 C-75.23203125 10.26171875 -76.88203125 10.26171875 -78.58203125 10.26171875 Z M-91.58203125 25.26171875 C-95.20111487 30.7487165 -96.17824548 34.70020005 -96.58203125 41.26171875 C-91.63203125 41.26171875 -86.68203125 41.26171875 -81.58203125 41.26171875 C-80.91848575 35.87041154 -80.46651827 30.69082874 -80.58203125 25.26171875 C-84.21203125 25.26171875 -87.84203125 25.26171875 -91.58203125 25.26171875 Z M-75.58203125 27.26171875 C-76.42580909 30.3337133 -76.42580909 30.3337133 -76.83203125 33.82421875 C-77.0021875 35.00113281 -77.17234375 36.17804688 -77.34765625 37.390625 C-77.425 38.33808594 -77.50234375 39.28554687 -77.58203125 40.26171875 C-76.54796452 41.52120924 -76.54796452 41.52120924 -74.296875 41.359375 C-73.38035156 41.34777344 -72.46382812 41.33617187 -71.51953125 41.32421875 C-70.60042969 41.31519531 -69.68132812 41.30617188 -68.734375 41.296875 C-68.02410156 41.28527344 -67.31382812 41.27367187 -66.58203125 41.26171875 C-65.13077395 36.28597943 -63.81834496 31.29528171 -62.58203125 26.26171875 C-67.4369193 24.64342273 -71.26971182 24.38683913 -75.58203125 27.26171875 Z M-95.58203125 46.26171875 C-96.49402003 49.90967385 -96.70058995 50.89276378 -95.83203125 54.26171875 C-95.6721875 54.92171875 -95.51234375 55.58171875 -95.34765625 56.26171875 C-94.40023404 58.73661759 -93.43587486 60.35396022 -91.58203125 62.26171875 C-89.08795873 62.95679265 -89.08795873 62.95679265 -86.39453125 63.01171875 C-85.49347656 63.0684375 -84.59242187 63.12515625 -83.6640625 63.18359375 C-82.97699219 63.209375 -82.28992188 63.23515625 -81.58203125 63.26171875 C-80.59358174 59.31524257 -80.6201122 55.98778911 -81.01953125 51.94921875 C-81.20515625 50.07234375 -81.39078125 48.19546875 -81.58203125 46.26171875 C-86.20203125 46.26171875 -90.82203125 46.26171875 -95.58203125 46.26171875 Z M-76.58203125 46.26171875 C-78.00997706 49.11761037 -77.3323892 51.07198156 -76.83203125 54.19921875 C-76.6721875 55.26011719 -76.51234375 56.32101563 -76.34765625 57.4140625 C-75.54938971 60.38312531 -75.12959113 61.57882043 -72.58203125 63.26171875 C-70.29873024 63.62318332 -70.29873024 63.62318332 -67.89453125 63.44921875 C-67.08628906 63.42214844 -66.27804688 63.39507812 -65.4453125 63.3671875 C-64.52298828 63.31498047 -64.52298828 63.31498047 -63.58203125 63.26171875 C-63.58203125 59.6372395 -63.79318295 56.12232255 -64.08203125 52.51171875 C-64.17484375 51.34125 -64.26765625 50.17078125 -64.36328125 48.96484375 C-64.43546875 48.0728125 -64.50765625 47.18078125 -64.58203125 46.26171875 C-68.54203125 46.26171875 -72.50203125 46.26171875 -76.58203125 46.26171875 Z M-87.58203125 68.26171875 C-87.25203125 69.25171875 -86.92203125 70.24171875 -86.58203125 71.26171875 C-85.92203125 71.26171875 -85.26203125 71.26171875 -84.58203125 71.26171875 C-84.33453125 71.865 -84.08703125 72.46828125 -83.83203125 73.08984375 C-82.37643152 75.61894828 -81.07078916 76.52944382 -78.58203125 78.01171875 C-77.88078125 78.4396875 -77.17953125 78.86765625 -76.45703125 79.30859375 C-74.6354439 80.41276763 -74.6354439 80.41276763 -72.58203125 80.26171875 C-73.89264716 76.02742119 -75.52559384 72.18764471 -77.58203125 68.26171875 C-80.88203125 68.26171875 -84.18203125 68.26171875 -87.58203125 68.26171875 Z M-72.58203125 68.26171875 C-71.05647159 73.07294722 -71.05647159 73.07294722 -67.58203125 76.26171875 C-67.49953125 76.88046875 -67.41703125 77.49921875 -67.33203125 78.13671875 C-66.71246855 80.62973827 -66.71246855 80.62973827 -63.51953125 82.01171875 C-62.55015625 82.42421875 -61.58078125 82.83671875 -60.58203125 83.26171875 C-58.7063729 81.3860604 -59.14889879 78.28340645 -58.95703125 75.76171875 C-58.86164063 74.57578125 -58.76625 73.38984375 -58.66796875 72.16796875 C-58.63960937 71.20890625 -58.61125 70.24984375 -58.58203125 69.26171875 C-59.69329784 67.92270083 -59.69329784 67.92270083 -62.5234375 68.1640625 C-63.71839844 68.17566406 -64.91335937 68.18726563 -66.14453125 68.19921875 C-67.34207031 68.20824219 -68.53960937 68.21726562 -69.7734375 68.2265625 C-71.16369141 68.24396484 -71.16369141 68.24396484 -72.58203125 68.26171875 Z M-54.58203125 78.26171875 C-54.58203125 79.91171875 -54.58203125 81.56171875 -54.58203125 83.26171875 C-52.93203125 82.60171875 -51.28203125 81.94171875 -49.58203125 81.26171875 C-49.58203125 80.60171875 -49.58203125 79.94171875 -49.58203125 79.26171875 C-51.23203125 78.93171875 -52.88203125 78.60171875 -54.58203125 78.26171875 Z " fill="#27C0AE" transform="translate(209.58203125,94.73828125)"/>
<path d="M0 0 C14.52232802 6.36287568 24.10099721 14.82247877 30.09375 29.71875 C34.33324353 43.06530371 32.38990199 56.69063473 26.125 69.0625 C23.75528831 72.33827792 21.4514425 73.94382149 18 76 C17.484375 76.556875 16.96875 77.11375 16.4375 77.6875 C15 79 15 79 12.4375 79.4375 C11.633125 79.623125 10.82875 79.80875 10 80 C9.71125 80.598125 9.4225 81.19625 9.125 81.8125 C7.31334262 85.33516714 4.51867094 86.27153007 1 88 C0.01 88 -0.98 88 -2 88 C-2.226875 88.639375 -2.45375 89.27875 -2.6875 89.9375 C-4 92 -4 92 -6.4375 92.75 C-9 93 -9 93 -12 93 C-12.144375 93.61875 -12.28875 94.2375 -12.4375 94.875 C-13 97 -13 97 -14 99 C-14.99 99 -15.98 99 -17 99 C-17 97.35 -17 95.7 -17 94 C-16.34 94 -15.68 94 -15 94 C-15 92.68 -15 91.36 -15 90 C-18.465 90.495 -18.465 90.495 -22 91 C-22.66 89.68 -23.32 88.36 -24 87 C-24.99 87 -25.98 87 -27 87 C-26.72690064 83.08557587 -26.25007787 81.2973899 -23.6875 78.25 C-21 76 -21 76 -18.75 75.125 C-17.88375 74.568125 -17.88375 74.568125 -17 74 C-16.855625 72.9275 -16.71125 71.855 -16.5625 70.75 C-16 67 -16 67 -13.4375 64.0625 C-10.2011966 59.99637521 -10.56428529 58.05429064 -11 53 C-10.34 53 -9.68 53 -9 53 C-8.74875683 40.3733419 -8.74875683 40.3733419 -11 28 C-11.66 28 -12.32 28 -13 28 C-14.76462683 24.91190305 -15 23.76687864 -15 20 C-15.66 20 -16.32 20 -17 20 C-17 19.34 -17 18.68 -17 18 C-17.66 17.67 -18.32 17.34 -19 17 C-19.66 16.34 -20.32 15.68 -21 15 C-21 14.01 -21 13.02 -21 12 C-22.98 11.34 -24.96 10.68 -27 10 C-26.73309994 6.79719931 -26.16670984 5.2056088 -24.125 2.6875 C-17.07539127 -1.11928872 -7.70532362 1.0639954 0 2 C0 1.34 0 0.68 0 0 Z " fill="#22C3B0" transform="translate(207,94)"/>
<path d="M0 0 C0.3125 2.3125 0.3125 2.3125 0 5 C-2.375 6.5625 -2.375 6.5625 -5 8 C-6.32793606 10.06700655 -6.32793606 10.06700655 -7 12 C-7.66 12 -8.32 12 -9 12 C-9 12.66 -9 13.32 -9 14 C-9.66 14 -10.32 14 -11 14 C-11.33 15.98 -11.66 17.96 -12 20 C-11.01 20 -10.02 20 -9 20 C-9 20.66 -9 21.32 -9 22 C-10.98 22.33 -12.96 22.66 -15 23 C-15 24.32 -15 25.64 -15 27 C-15.30489295 29.25403004 -15.64064155 31.50400966 -16 33.75 C-16.185625 34.92046875 -16.37125 36.0909375 -16.5625 37.296875 C-16.706875 38.18890625 -16.85125 39.0809375 -17 40 C-13.04 40.33 -9.08 40.66 -5 41 C-5 41.99 -5 42.98 -5 44 C-4.01 44 -3.02 44 -2 44 C-1.3125 45.8125 -1.3125 45.8125 -1 48 C-2.3125 49.75 -2.3125 49.75 -4 51 C-4.66 51 -5.32 51 -6 51 C-5.67 49.35 -5.34 47.7 -5 46 C-10.94 46.495 -10.94 46.495 -17 47 C-16.34 51.95 -15.68 56.9 -15 62 C-11.37 62 -7.74 62 -4 62 C-4.99 57.05 -4.99 57.05 -6 52 C-4.68 52.33 -3.36 52.66 -2 53 C-1.93941406 53.91523438 -1.87882812 54.83046875 -1.81640625 55.7734375 C-1.73261719 56.96195313 -1.64882812 58.15046875 -1.5625 59.375 C-1.48128906 60.55835938 -1.40007812 61.74171875 -1.31640625 62.9609375 C-1.18915064 65.91518901 -1.18915064 65.91518901 0 68 C-5.94 68.495 -5.94 68.495 -12 69 C-11.22520264 71.99152582 -11.22520264 71.99152582 -10 75 C-9.01 75.33 -8.02 75.66 -7 76 C-7 77.32 -7 78.64 -7 80 C-4.03 80.99 -4.03 80.99 -1 82 C-0.93941406 81.16855469 -0.87882812 80.33710938 -0.81640625 79.48046875 C-0.73261719 78.39378906 -0.64882812 77.30710937 -0.5625 76.1875 C-0.48128906 75.10855469 -0.40007812 74.02960938 -0.31640625 72.91796875 C0 70 0 70 1 67 C1.99 67 2.98 67 4 67 C4 66.34 4 65.68 4 65 C3.01 64.505 3.01 64.505 2 64 C3.32 64 4.64 64 6 64 C5.97679687 64.62648438 5.95359375 65.25296875 5.9296875 65.8984375 C5.91164062 66.71570313 5.89359375 67.53296875 5.875 68.375 C5.85179687 69.18710938 5.82859375 69.99921875 5.8046875 70.8359375 C5.78629949 73.21342243 5.78629949 73.21342243 8 75 C7.625 76.9375 7.625 76.9375 7 79 C7 79.99 7 80.98 7 82 C8.98 81.01 8.98 81.01 11 80 C10.34 81.65 9.68 83.3 9 85 C11.97 85.495 11.97 85.495 15 86 C14.67 86.66 14.34 87.32 14 88 C10.54196269 88.11795981 7.08445443 88.18782752 3.625 88.25 C2.65949219 88.28351563 1.69398438 88.31703125 0.69921875 88.3515625 C-11.80633387 88.51942227 -20.81375024 83.24041586 -30 75 C-39.02759149 64.95133443 -42.1087421 53.31313972 -42 40 C-41.27332815 29.34729992 -35.93143358 18.18786168 -28 11 C-19.60192377 4.14740308 -11.04946874 -0.81847917 0 0 Z M-15 8 C-14.34 8.66 -13.68 9.32 -13 10 C-13 9.34 -13 8.68 -13 8 C-13.66 8 -14.32 8 -15 8 Z M-19 10 C-19 10.66 -19 11.32 -19 12 C-19.5775 12.0825 -20.155 12.165 -20.75 12.25 C-23.67794601 13.225982 -25.05244537 14.63511223 -27 17 C-27 17.99 -27 18.98 -27 20 C-22.97000144 20.33826978 -22.97000144 20.33826978 -19 20 C-16.97477807 17.87502253 -16.97477807 17.87502253 -16 15 C-15.608125 14.071875 -15.21625 13.14375 -14.8125 12.1875 C-14.544375 11.465625 -14.27625 10.74375 -14 10 C-15.65 10 -17.3 10 -19 10 Z M-32 25 C-35.61908362 30.48699775 -36.59621423 34.4384813 -37 41 C-32.05 41 -27.1 41 -22 41 C-21.3364545 35.60869279 -20.88448702 30.42910999 -21 25 C-24.63 25 -28.26 25 -32 25 Z M-36 46 C-36.91198878 49.6479551 -37.1185587 50.63104503 -36.25 54 C-36.09015625 54.66 -35.9303125 55.32 -35.765625 56 C-34.81820279 58.47489884 -33.85384361 60.09224147 -32 62 C-29.50592748 62.6950739 -29.50592748 62.6950739 -26.8125 62.75 C-25.91144531 62.80671875 -25.01039062 62.8634375 -24.08203125 62.921875 C-23.39496094 62.94765625 -22.70789063 62.9734375 -22 63 C-21.01155049 59.05352382 -21.03808095 55.72607036 -21.4375 51.6875 C-21.623125 49.810625 -21.80875 47.93375 -22 46 C-26.62 46 -31.24 46 -36 46 Z M-28 68 C-27.67 68.99 -27.34 69.98 -27 71 C-26.34 71 -25.68 71 -25 71 C-24.7525 71.60328125 -24.505 72.2065625 -24.25 72.828125 C-22.79440027 75.35722953 -21.48875791 76.26772507 -19 77.75 C-18.29875 78.17796875 -17.5975 78.6059375 -16.875 79.046875 C-15.05341265 80.15104888 -15.05341265 80.15104888 -13 80 C-14.31061591 75.76570244 -15.94356259 71.92592596 -18 68 C-21.3 68 -24.6 68 -28 68 Z " fill="#45AB9A" transform="translate(150,95)"/>
<path d="M0 0 C0.33 1.32 0.66 2.64 1 4 C1.66 4 2.32 4 3 4 C3.33 6.97 3.66 9.94 4 13 C4.33 8.71 4.66 4.42 5 0 C10.78898419 -0.20674944 15.42932723 0.40837921 21 2 C21 3.32 21 4.64 21 6 C22.32 6 23.64 6 25 6 C25.042721 7.66611905 25.04063832 9.33382885 25 11 C24.67 11.33 24.34 11.66 24 12 C24 13.98 24 15.96 24 18 C20.04 18 16.08 18 12 18 C12.33 19.32 12.66 20.64 13 22 C16.63 22 20.26 22 24 22 C24.495 24.475 24.495 24.475 25 27 C24.505 27.495 24.505 27.495 24 28 C23.81482115 29.72539663 23.67700022 31.45597627 23.5625 33.1875 C23.22172841 37.40867061 22.60379458 41.04397336 21 45 C20.01 45 19.02 45 18 45 C17.7525 45.928125 17.505 46.85625 17.25 47.8125 C15.93545755 51.16458325 15.02036616 52.1877803 12 54 C9.30166927 51.64185996 8.11535036 49.38202294 6.8125 46.0625 C6.46832031 45.20785156 6.12414062 44.35320312 5.76953125 43.47265625 C5 41 5 41 5 37 C4.01 37.495 4.01 37.495 3 38 C3 38.66 3 39.32 3 40 C2.01 40 1.02 40 0 40 C-0.33 40.66 -0.66 41.32 -1 42 C-3.81868307 37.77197539 -3.38620699 33.921688 -3.55859375 28.93359375 C-3.70425781 27.96550781 -3.84992188 26.99742187 -4 26 C-4.99 25.34 -5.98 24.68 -7 24 C-6.01 23.1028125 -6.01 23.1028125 -5 22.1875 C-2.6626154 20.12498166 -2.6626154 20.12498166 -3 17 C-3.99 17 -4.98 17 -6 17 C-6 16.01 -6 15.02 -6 14 C-6.66 13.67 -7.32 13.34 -8 13 C-7.74445946 11.53890937 -7.46999628 10.08111904 -7.1875 8.625 C-7.03667969 7.81289062 -6.88585937 7.00078125 -6.73046875 6.1640625 C-6 4 -6 4 -3 2 C-2.01 2 -1.02 2 0 2 C0 1.34 0 0.68 0 0 Z " fill="#27C0AF" transform="translate(151,122)"/>
<path d="M0 0 C0.84240234 -0.01224609 1.68480469 -0.02449219 2.55273438 -0.03710938 C7.3396811 -0.04833755 11.19028001 0.331388 15.6875 2.1875 C15.6875 2.8475 15.6875 3.5075 15.6875 4.1875 C15.07753174 4.16655273 14.46756348 4.14560547 13.83911133 4.12402344 C11.05957706 4.04057139 8.2803068 3.98874989 5.5 3.9375 C4.54029297 3.90398437 3.58058594 3.87046875 2.59179688 3.8359375 C-1.86597292 3.77423826 -4.5603687 3.75453881 -8.48828125 6.015625 C-10.63407989 8.09764294 -10.63407989 8.09764294 -10.3125 11.1875 C-9.19875 11.8371875 -9.19875 11.8371875 -8.0625 12.5 C-4.69647047 14.56551812 -3.26345945 16.7913854 -1.3125 20.1875 C-1.3125 20.8475 -1.3125 21.5075 -1.3125 22.1875 C-0.6525 22.1875 0.0075 22.1875 0.6875 22.1875 C2.8394437 25.41541555 2.88836443 26.47150809 2.6875 30.1875 C3.3475 30.1875 4.0075 30.1875 4.6875 30.1875 C8.57466152 36.01824229 8.13363864 44.32483798 7.6875 51.1875 C7.38641559 52.52848362 7.06192716 53.86511836 6.6875 55.1875 C6.0275 55.1875 5.3675 55.1875 4.6875 55.1875 C4.955625 56.363125 5.22375 57.53875 5.5 58.75 C5.96644419 62.32397099 5.56225272 63.95372232 3.375 66.8125 C2.90449219 67.3796875 2.43398437 67.946875 1.94921875 68.53125 C0.4618778 70.2920001 0.4618778 70.2920001 -0.3125 73.3125 C-1.57722925 76.9485966 -3.40871939 78.70866289 -6.3125 81.1875 C-7.3025 81.5175 -8.2925 81.8475 -9.3125 82.1875 C-10 79.875 -10 79.875 -10.3125 77.1875 C-9.125 75.375 -9.125 75.375 -7.3125 74.1875 C-5.9925 74.1875 -4.6725 74.1875 -3.3125 74.1875 C-3.56 73.65125 -3.8075 73.115 -4.0625 72.5625 C-4.44703631 68.90940506 -2.40153992 67.07529048 -0.3125 64.1875 C0.0175 63.1975 0.3475 62.2075 0.6875 61.1875 C1.3475 61.1875 2.0075 61.1875 2.6875 61.1875 C4.79265739 45.45963783 4.79265739 45.45963783 0.109375 31.109375 C-1.3125 29.1875 -1.3125 29.1875 -1.3125 25.1875 C-1.9725 24.8575 -2.6325 24.5275 -3.3125 24.1875 C-3.3125 23.5275 -3.3125 22.8675 -3.3125 22.1875 C-4.3025 22.1875 -5.2925 22.1875 -6.3125 22.1875 C-7.38775194 19.53521188 -8.40706151 16.90381546 -9.3125 14.1875 C-10.3025 14.1875 -11.2925 14.1875 -12.3125 14.1875 C-12.3125 13.5275 -12.3125 12.8675 -12.3125 12.1875 C-13.3025 12.5175 -14.2925 12.8475 -15.3125 13.1875 C-17.5 12.25 -17.5 12.25 -19.3125 11.1875 C-19.08433594 11.70699219 -18.85617188 12.22648437 -18.62109375 12.76171875 C-16.90201696 16.93221445 -15.77687864 19.72023787 -17.3125 24.1875 C-17.9725 24.1875 -18.6325 24.1875 -19.3125 24.1875 C-19.43625 23.56875 -19.56 22.95 -19.6875 22.3125 C-20.18447356 19.99629168 -20.18447356 19.99629168 -22.3125 18.1875 C-22.8075 16.7025 -22.8075 16.7025 -23.3125 15.1875 C-23.9725 14.8575 -24.6325 14.5275 -25.3125 14.1875 C-25.3125 13.1975 -25.3125 12.2075 -25.3125 11.1875 C-28.42582248 11.85618314 -28.42582248 11.85618314 -29.5 14.25 C-29.768125 14.889375 -30.03625 15.52875 -30.3125 16.1875 C-30.9725 16.1875 -31.6325 16.1875 -32.3125 16.1875 C-32.3125 17.8375 -32.3125 19.4875 -32.3125 21.1875 C-33.3025 21.1875 -34.2925 21.1875 -35.3125 21.1875 C-34.9825 22.5075 -34.6525 23.8275 -34.3125 25.1875 C-32.35485617 25.38206705 -30.39634679 25.56794247 -28.4375 25.75 C-27.34695312 25.85441406 -26.25640625 25.95882812 -25.1328125 26.06640625 C-22.36097977 26.41389404 -22.36097977 26.41389404 -20.3125 25.1875 C-19.8175 27.6625 -19.8175 27.6625 -19.3125 30.1875 C-24.5925 30.1875 -29.8725 30.1875 -35.3125 30.1875 C-35.3125 34.4775 -35.3125 38.7675 -35.3125 43.1875 C-36.3025 43.6825 -36.3025 43.6825 -37.3125 44.1875 C-37.3125 40.8875 -37.3125 37.5875 -37.3125 34.1875 C-37.9725 34.1875 -38.6325 34.1875 -39.3125 34.1875 C-39.6425 33.5275 -39.9725 32.8675 -40.3125 32.1875 C-42.7875 32.6825 -42.7875 32.6825 -45.3125 33.1875 C-45.8075 31.7025 -45.8075 31.7025 -46.3125 30.1875 C-47.29517859 28.98188816 -47.29517859 28.98188816 -49.16015625 29.08984375 C-51.2109375 29.12239583 -53.26171875 29.15494792 -55.3125 29.1875 C-55.3125 28.5275 -55.3125 27.8675 -55.3125 27.1875 C-55.9725 26.8575 -56.6325 26.5275 -57.3125 26.1875 C-56.3125 25.1875 -56.3125 25.1875 -53.25 25.125 C-51.7959375 25.1559375 -51.7959375 25.1559375 -50.3125 25.1875 C-50.3125 24.5275 -50.3125 23.8675 -50.3125 23.1875 C-47.3425 23.1875 -44.3725 23.1875 -41.3125 23.1875 C-41.3125 16.2575 -41.3125 9.3275 -41.3125 2.1875 C-28.79637097 3.09072581 -28.79637097 3.09072581 -24.5625 3.9375 C-20.00706387 4.28791816 -16.50776228 2.82983136 -12.3125 1.1875 C-8.18556853 -0.18814382 -4.32203657 0.00326191 0 0 Z M-36.3125 8.1875 C-35.9825 9.8375 -35.6525 11.4875 -35.3125 13.1875 C-33.9925 12.8575 -32.6725 12.5275 -31.3125 12.1875 C-31.3125 11.5275 -31.3125 10.8675 -31.3125 10.1875 C-31.9725 10.1875 -32.6325 10.1875 -33.3125 10.1875 C-33.3125 9.5275 -33.3125 8.8675 -33.3125 8.1875 C-34.3025 8.1875 -35.2925 8.1875 -36.3125 8.1875 Z " fill="#35B8A9" transform="translate(191.3125,91.8125)"/>
<path d="M0 0 C0.3125 2.3125 0.3125 2.3125 0 5 C-2.375 6.5625 -2.375 6.5625 -5 8 C-6.32793606 10.06700655 -6.32793606 10.06700655 -7 12 C-7.66 12 -8.32 12 -9 12 C-9 12.66 -9 13.32 -9 14 C-9.66 14 -10.32 14 -11 14 C-11.33 15.98 -11.66 17.96 -12 20 C-11.01 20 -10.02 20 -9 20 C-9 20.66 -9 21.32 -9 22 C-10.98 22.33 -12.96 22.66 -15 23 C-15 23.99 -15 24.98 -15 26 C-15.4122583 25.51104248 -15.8245166 25.02208496 -16.24926758 24.51831055 C-18.37153625 22.67778776 -19.24935371 22.64472226 -22.01171875 22.70703125 C-22.76904297 22.71669922 -23.52636719 22.72636719 -24.30664062 22.73632812 C-25.09232422 22.76146484 -25.87800781 22.78660156 -26.6875 22.8125 C-27.48478516 22.82603516 -28.28207031 22.83957031 -29.10351562 22.85351562 C-31.06929967 22.88882911 -33.03473582 22.94263553 -35 23 C-33.94021067 24.28612676 -33.94021067 24.28612676 -31.49609375 24.09765625 C-30.48675781 24.08605469 -29.47742188 24.07445313 -28.4375 24.0625 C-27.42558594 24.05347656 -26.41367188 24.04445313 -25.37109375 24.03515625 C-24.58863281 24.02355469 -23.80617188 24.01195313 -23 24 C-23 24.33 -23 24.66 -23 25 C-23.61488281 25.00257812 -24.22976562 25.00515625 -24.86328125 25.0078125 C-27.35682472 25.1271208 -29.58620503 25.35574867 -32 26 C-35.30412031 30.26338105 -36.01221959 35.77057429 -37 41 C-34.69 41.33 -32.38 41.66 -30 42 C-30.33 42.99 -30.66 43.98 -31 45 C-33.5625 46.1875 -33.5625 46.1875 -36 47 C-36 47.99 -36 48.98 -36 50 C-36.99 50.66 -37.98 51.32 -39 52 C-39.2502157 55.08365871 -39.2502157 55.08365871 -39 58 C-43.25099386 50.92662498 -42.77441446 40.32135621 -40.85546875 32.50390625 C-36.1282063 18.66748968 -28.41502215 9.34910503 -15.4140625 2.671875 C-10.05750893 0.33147313 -5.82426821 -0.43142727 0 0 Z M-15 8 C-14.34 8.66 -13.68 9.32 -13 10 C-13 9.34 -13 8.68 -13 8 C-13.66 8 -14.32 8 -15 8 Z M-19 10 C-19 10.66 -19 11.32 -19 12 C-19.5775 12.0825 -20.155 12.165 -20.75 12.25 C-23.67794601 13.225982 -25.05244537 14.63511223 -27 17 C-27 17.99 -27 18.98 -27 20 C-22.97000144 20.33826978 -22.97000144 20.33826978 -19 20 C-16.97477807 17.87502253 -16.97477807 17.87502253 -16 15 C-15.608125 14.071875 -15.21625 13.14375 -14.8125 12.1875 C-14.544375 11.465625 -14.27625 10.74375 -14 10 C-15.65 10 -17.3 10 -19 10 Z " fill="#4FAE9E" transform="translate(150,95)"/>
<path d="M0 0 C6.93 0.495 6.93 0.495 14 1 C13.67 2.32 13.34 3.64 13 5 C10.03 5 7.06 5 4 5 C3.97314905 7.47923801 3.95323453 9.9581884 3.9375 12.4375 C3.92912109 13.14455078 3.92074219 13.85160156 3.91210938 14.58007812 C3.90346412 16.38693559 3.94779989 18.19387603 4 20 C4.33 20.33 4.66 20.66 5 21 C5.33 20.01 5.66 19.02 6 18 C6.33 19.32 6.66 20.64 7 22 C7.94875 21.95875 8.8975 21.9175 9.875 21.875 C13 22 13 22 15 24 C14.34 24.99 13.68 25.98 13 27 C11.68 27 10.36 27 9 27 C9 27.66 9 28.32 9 29 C8.01 29 7.02 29 6 29 C5.34 32.3 4.68 35.6 4 39 C3.34 39 2.68 39 2 39 C2.66 40.65 3.32 42.3 4 44 C3.34 44.66 2.68 45.32 2 46 C0.69228103 48.86063524 -0.17499646 51.64529945 -1 54.6875 C-2 58 -2 58 -4 60 C-2.515 59.505 -2.515 59.505 -1 59 C0.7890625 60.109375 0.7890625 60.109375 2.625 61.75 C3.23601562 62.28109375 3.84703125 62.8121875 4.4765625 63.359375 C6 65 6 65 7 68 C-0.40774509 66.60695059 -7.70170537 64.88100377 -15 63 C-14.67 61.35 -14.34 59.7 -14 58 C-14.99 57.34 -15.98 56.68 -17 56 C-17.6875 53.875 -17.6875 53.875 -18 52 C-18.33 52 -18.66 52 -19 52 C-19 49.36 -19 46.72 -19 44 C-18.67 44.66 -18.34 45.32 -18 46 C-17.34 46.33 -16.68 46.66 -16 47 C-14.9296875 49.28515625 -14.9296875 49.28515625 -13.875 52.0625 C-13.52179688 52.98160156 -13.16859375 53.90070313 -12.8046875 54.84765625 C-12.53914062 55.55792969 -12.27359375 56.26820313 -12 57 C-11.01 57 -10.02 57 -9 57 C-8.690625 56.38125 -8.38125 55.7625 -8.0625 55.125 C-6 51 -6 51 -4.01171875 49.84375 C-1.1002831 47.17540509 -1.1296805 44.24201713 -0.8125 40.5 C-0.06944444 33.20833333 -0.06944444 33.20833333 1 30 C1 29.01 1 28.02 1 27 C-2.63 27 -6.26 27 -10 27 C-10.33 25.68 -10.66 24.36 -11 23 C-7.37 22.67 -3.74 22.34 0 22 C0 20.35 0 18.7 0 17 C0.33 16.67 0.66 16.34 1 16 C1.36760731 13.67182036 1.70241581 11.3381615 2 9 C1.34 9 0.68 9 0 9 C0 6.03 0 3.06 0 0 Z " fill="#2CB5A7" transform="translate(174,117)"/>
<path d="M0 0 C0.99 0 1.98 0 3 0 C3 0.66 3 1.32 3 2 C3.99 1.67 4.98 1.34 6 1 C6.66 2.32 7.32 3.64 8 5 C8.350625 4.360625 8.70125 3.72125 9.0625 3.0625 C11.77184206 0.17836168 14.15858911 0.2899178 18 0 C18 0.66 18 1.32 18 2 C19.65 1.67 21.3 1.34 23 1 C22.46375 1.639375 21.9275 2.27875 21.375 2.9375 C19.4012795 7.33351383 20.6447484 10.52474471 22 15 C18.91111478 17.05925681 18.29064073 17.2390374 14.8125 17.125 C13.554375 17.08375 12.29625 17.0425 11 17 C10.34 15.68 9.68 14.36 9 13 C8.67 13.474375 8.34 13.94875 8 14.4375 C5.00964464 16.77371512 1.73932026 16.96984419 -2 17 C-2.99 16.67 -3.98 16.34 -5 16 C-5.33 15.01 -5.66 14.02 -6 13 C-5.67 12.34 -5.34 11.68 -5 11 C-5.66 10.67 -6.32 10.34 -7 10 C-6.34 7.36 -5.68 4.72 -5 2 C-3.35 2 -1.7 2 0 2 C0 1.34 0 0.68 0 0 Z M10 4 C11 6 11 6 11 6 Z " fill="#060715" transform="translate(250,225)"/>
<path d="M0 0 C12.625 0.875 12.625 0.875 16 2 C15.67 3.65 15.34 5.3 15 7 C14.01 7 13.02 7 12 7 C11.67 7.99 11.34 8.98 11 10 C10.67 9.34 10.34 8.68 10 8 C9.34 8 8.68 8 8 8 C8 7.34 8 6.68 8 6 C7.34 6.66 6.68 7.32 6 8 C6 9.32 6 10.64 6 12 C6.66 12 7.32 12 8 12 C8 13.98 8 15.96 8 18 C7.34 18 6.68 18 6 18 C5.34 22.62 4.68 27.24 4 32 C3.34 32 2.68 32 2 32 C1.67 31.34 1.34 30.68 1 30 C-0.65 30.33 -2.3 30.66 -4 31 C-4.33 30.01 -4.66 29.02 -5 28 C-5.98267859 26.79438816 -5.98267859 26.79438816 -7.84765625 26.90234375 C-9.8984375 26.93489583 -11.94921875 26.96744792 -14 27 C-14 26.34 -14 25.68 -14 25 C-14.66 24.67 -15.32 24.34 -16 24 C-15 23 -15 23 -11.9375 22.9375 C-10.4834375 22.9684375 -10.4834375 22.9684375 -9 23 C-9 22.34 -9 21.68 -9 21 C-6.03 21 -3.06 21 0 21 C0 14.07 0 7.14 0 0 Z " fill="#3FB2A5" transform="translate(150,94)"/>
<path d="M0 0 C-0.33 4.62 -0.66 9.24 -1 14 C-2.32 13.67 -3.64 13.34 -5 13 C-5 10.03 -5 7.06 -5 4 C-5.99 4 -6.98 4 -8 4 C-10.32590854 7.63423209 -10.16265833 10.77088331 -10 15 C-11.32 14.67 -12.64 14.34 -14 14 C-14 11.03 -14 8.06 -14 5 C-14.66 5 -15.32 5 -16 5 C-16.33 4.34 -16.66 3.68 -17 3 C-17.99 3.33 -18.98 3.66 -20 4 C-19.98839844 4.63808594 -19.97679688 5.27617187 -19.96484375 5.93359375 C-19.95582031 6.75988281 -19.94679688 7.58617187 -19.9375 8.4375 C-19.92589844 9.26121094 -19.91429688 10.08492187 -19.90234375 10.93359375 C-20 13 -20 13 -21 14 C-22.9609375 14.16796875 -22.9609375 14.16796875 -25.375 14.1875 C-26.16648437 14.20167969 -26.95796875 14.21585938 -27.7734375 14.23046875 C-30 14 -30 14 -33 12 C-33 10 -33 10 -31 8 C-31.3185177 5.89179203 -31.3185177 5.89179203 -32 4 C-31.34 4 -30.68 4 -30 4 C-30 3.34 -30 2.68 -30 2 C-30.66 2 -31.32 2 -32 2 C-31.67 1.01 -31.34 0.02 -31 -1 C-29.96552734 -0.87431641 -29.96552734 -0.87431641 -28.91015625 -0.74609375 C-18.67252939 0.36333358 -9.8170628 -2.38414382 0 0 Z " fill="#0D0E1A" transform="translate(85,227)"/>
<path d="M0 0 C1.34313399 0.64669414 2.67391178 1.31903578 4 2 C4.825 2.4125 5.65 2.825 6.5 3.25 C9.5908037 5.41356259 11.13175507 7.74786994 13 11 C13 11.66 13 12.32 13 13 C13.66 13 14.32 13 15 13 C17.1519437 16.22791555 17.20086443 17.28400809 17 21 C17.66 21 18.32 21 19 21 C22.88716152 26.83074229 22.44613864 35.13733798 22 42 C21.69891559 43.34098362 21.37442716 44.67761836 21 46 C20.34 46 19.68 46 19 46 C19.268125 47.175625 19.53625 48.35125 19.8125 49.5625 C20.27894419 53.13647099 19.87475272 54.76622232 17.6875 57.625 C17.21699219 58.1921875 16.74648437 58.759375 16.26171875 59.34375 C14.7743778 61.1045001 14.7743778 61.1045001 14 64.125 C12.73527075 67.7610966 10.90378061 69.52116289 8 72 C6.515 72.495 6.515 72.495 5 73 C4.3125 70.6875 4.3125 70.6875 4 68 C5.1875 66.1875 5.1875 66.1875 7 65 C8.32 65 9.64 65 11 65 C10.7525 64.46375 10.505 63.9275 10.25 63.375 C9.86546369 59.72190506 11.91096008 57.88779048 14 55 C14.33 54.01 14.66 53.02 15 52 C15.66 52 16.32 52 17 52 C19.10515739 36.27213783 19.10515739 36.27213783 14.421875 21.921875 C13 20 13 20 13 16 C12.34 15.67 11.68 15.34 11 15 C11 14.34 11 13.68 11 13 C10.01 13 9.02 13 8 13 C6.92474806 10.34771188 5.90543849 7.71631546 5 5 C4.01 5 3.02 5 2 5 C2 4.34 2 3.68 2 3 C1.01 3.33 0.02 3.66 -1 4 C-0.67 2.68 -0.34 1.36 0 0 Z " fill="#27B1A1" transform="translate(177,101)"/>
<path d="M0 0 C0.66 0 1.32 0 2 0 C-0.96946624 6.50725138 -5.73314815 10.52282407 -12.0625 13.6875 C-18.46610249 16.95572866 -23.50397393 21.44853635 -28.8359375 26.1953125 C-29.64562988 26.90929199 -29.64562988 26.90929199 -30.47167969 27.63769531 C-31.86679136 28.88126131 -33.23570145 30.15406351 -34.6015625 31.4296875 C-37 33 -37 33 -39.8125 32.75 C-40.534375 32.5025 -41.25625 32.255 -42 32 C-41.96519531 31.15695313 -41.93039063 30.31390625 -41.89453125 29.4453125 C-41.86746094 28.34960938 -41.84039062 27.25390625 -41.8125 26.125 C-41.77769531 25.03445312 -41.74289063 23.94390625 -41.70703125 22.8203125 C-41.85205078 21.42425781 -41.85205078 21.42425781 -42 20 C-42.99 19.34 -43.98 18.68 -45 18 C-41.7 17.67 -38.4 17.34 -35 17 C-35 18.32 -35 19.64 -35 21 C-35.66 21 -36.32 21 -37 21 C-37 22.65 -37 24.3 -37 26 C-36.01 26 -35.02 26 -34 26 C-33.01 22.535 -33.01 22.535 -32 19 C-31.01 19 -30.02 19 -29 19 C-26.43259568 18.75319799 -26.43259568 18.75319799 -24 18 C-23.34 17.01 -22.68 16.02 -22 15 C-19.7578125 13.75390625 -19.7578125 13.75390625 -17.125 12.5625 C-13.34589145 10.76783009 -10.90840044 9.01611897 -8 6 C-7.13375 5.835 -6.2675 5.67 -5.375 5.5 C-4.59125 5.335 -3.8075 5.17 -3 5 C-1.69934079 3.06616713 -1.69934079 3.06616713 -1 1 C-0.67 0.67 -0.34 0.34 0 0 Z " fill="#2CBFAD" transform="translate(227,167)"/>
<path d="M0 0 C1.5159375 0.2475 1.5159375 0.2475 3.0625 0.5 C6.76948749 0.97072857 10.26940834 1.07174215 14 1 C14.99 1 15.98 1 17 1 C17.33 0.67 17.66 0.34 18 0 C18.33 0.66 18.66 1.32 19 2 C20.65 1.67 22.3 1.34 24 1 C23.25 8.75 23.25 8.75 21 11 C21.66 12.65 22.32 14.3 23 16 C19.18510326 17.46726798 16.70988378 16.43336419 13 15 C12.855625 14.2575 12.71125 13.515 12.5625 12.75 C12.09812508 10.47972261 11.58136431 8.24240521 11 6 C9.68 6.33 8.36 6.66 7 7 C7.33 9.97 7.66 12.94 8 16 C6.35 16 4.7 16 3 16 C3.33 12.37 3.66 8.74 4 5 C2.68 5.33 1.36 5.66 0 6 C-1.125 2.25 -1.125 2.25 0 0 Z " fill="#131321" transform="translate(188,225)"/>
<path d="M0 0 C10.8094311 2.771649 19.162661 10.54203925 24.76171875 19.96484375 C31.20855459 32.34339296 33.26462641 44.2182255 29.25 57.9375 C27.6316086 62.66551489 25.72392219 66.81683378 23 71 C22.01 71 21.02 71 20 71 C21.375 68.5 21.375 68.5 23 66 C23.66 66 24.32 66 25 66 C25.33 63.36 25.66 60.72 26 58 C26.66 58 27.32 58 28 58 C28 49.09 28 40.18 28 31 C27.34 30.67 26.68 30.34 26 30 C23.82039294 27.00304029 22.76999865 24.32407706 22 20.75 C21.67 19.5125 21.34 18.275 21 17 C20.01 16.67 19.02 16.34 18 16 C17.319375 15.01 17.319375 15.01 16.625 14 C15.15319942 11.75444492 15.15319942 11.75444492 12.5 11.5 C10 11 10 11 8.3125 9.0625 C7.879375 8.381875 7.44625 7.70125 7 7 C4.64046906 4.64046906 3.22104383 4.50858587 0 4 C0 2.68 0 1.36 0 0 Z " fill="#39AEA0" transform="translate(208,95)"/>
<path d="M0 0 C3.96 0 7.92 0 12 0 C11.67 0.99 11.34 1.98 11 3 C11.66 3 12.32 3 13 3 C12.835 3.9075 12.67 4.815 12.5 5.75 C11.89862854 9.11087503 11.89862854 9.11087503 12 13 C11.67 13.66 11.34 14.32 11 15 C10.195625 14.814375 9.39125 14.62875 8.5625 14.4375 C7.716875 14.293125 6.87125 14.14875 6 14 C5.67 14.33 5.34 14.66 5 15 C3.00041636 15.04080783 0.99954746 15.04254356 -1 15 C-1.06058594 14.38511719 -1.12117188 13.77023438 -1.18359375 13.13671875 C-1.26738281 12.32847656 -1.35117187 11.52023438 -1.4375 10.6875 C-1.51871094 9.88699219 -1.59992188 9.08648437 -1.68359375 8.26171875 C-1.95265693 5.83912821 -1.95265693 5.83912821 -3 3 C-2.34 3 -1.68 3 -1 3 C-0.67 2.01 -0.34 1.02 0 0 Z M10 3 C11 5 11 5 11 5 Z M2 12 C3 14 3 14 3 14 Z " fill="#0F1021" transform="translate(274,226)"/>
<path d="M0 0 C0.99 0 1.98 0 3 0 C3 0.66 3 1.32 3 2 C3.99 1.67 4.98 1.34 6 1 C7.65766798 2.65766798 7.21049503 4.60346405 7.25 6.875 C7.28867187 8.20144531 7.28867187 8.20144531 7.328125 9.5546875 C7 12 7 12 5.77734375 13.77734375 C3.5592829 15.30317462 1.98414302 15.49390268 -0.6875 15.6875 C-1.89986328 15.78611328 -1.89986328 15.78611328 -3.13671875 15.88671875 C-3.75160156 15.92410156 -4.36648437 15.96148437 -5 16 C-5.33 15.01 -5.66 14.02 -6 13 C-5.67 12.34 -5.34 11.68 -5 11 C-5.66 10.67 -6.32 10.34 -7 10 C-6.34 7.36 -5.68 4.72 -5 2 C-3.35 2 -1.7 2 0 2 C0 1.34 0 0.68 0 0 Z " fill="#171725" transform="translate(250,225)"/>
<path d="M0 0 C1.34061543 0.30271961 2.67405895 0.63837971 4 1 C6.18703385 0.62092718 6.18703385 0.62092718 8 0 C8 0.99 8 1.98 8 3 C8.33 2.34 8.66 1.68 9 1 C11 0.3125 11 0.3125 13 0 C14 1 14 1 14.09765625 4.16015625 C14.08605469 5.44792969 14.07445313 6.73570312 14.0625 8.0625 C14.05347656 9.35285156 14.04445313 10.64320313 14.03515625 11.97265625 C14.02355469 12.97167969 14.01195313 13.97070312 14 15 C13.01 15 12.02 15 11 15 C10.95101562 14.28972656 10.90203125 13.57945312 10.8515625 12.84765625 C10.77679688 11.92855469 10.70203125 11.00945312 10.625 10.0625 C10.55539063 9.14597656 10.48578125 8.22945312 10.4140625 7.28515625 C10.27742188 6.53105469 10.14078125 5.77695313 10 5 C9.34 4.67 8.68 4.34 8 4 C8 5.65 8 7.3 8 9 C7.01 9.33 6.02 9.66 5 10 C4.67 11.65 4.34 13.3 4 15 C2.68 15.33 1.36 15.66 0 16 C-0.04898438 15.40832031 -0.09796875 14.81664062 -0.1484375 14.20703125 C-0.56456867 9.80895528 -1.04965595 6.03071103 -3 2 C-2.01 1.34 -1.02 0.68 0 0 Z " fill="#0D0D18" transform="translate(89,225)"/>
<path d="M0 0 C0.7425 0.350625 1.485 0.70125 2.25 1.0625 C5.27247593 2.09288952 6.05058088 1.76114042 9 1 C11.25 1.9375 11.25 1.9375 13 3 C12.67 3.66 12.34 4.32 12 5 C11.34 5 10.68 5 10 5 C10.185625 5.680625 10.37125 6.36125 10.5625 7.0625 C11.08523943 10.57232191 10.61378577 13.52188063 10 17 C9.236875 16.835 8.47375 16.67 7.6875 16.5 C4.96403764 15.90854604 4.96403764 15.90854604 2 16 C0.68 16 -0.64 16 -2 16 C-1.34 13.69 -0.68 11.38 0 9 C-0.66 8.67 -1.32 8.34 -2 8 C-1.47731534 5.23723823 -0.89130413 2.6739124 0 0 Z M4 4 C4.66 4.66 5.32 5.32 6 6 C6.66 5.34 7.32 4.68 8 4 C6.68 4 5.36 4 4 4 Z M7 6 C6.67 6.66 6.34 7.32 6 8 C6.66 8 7.32 8 8 8 C7.67 7.34 7.34 6.68 7 6 Z " fill="#181829" transform="translate(174,225)"/>
<path d="M0 0 C2.91340119 4.77797795 3.25614493 7.55670531 2 13 C1.67 13.66 1.34 14.32 1 15 C-1.0625 15.625 -1.0625 15.625 -3 16 C-3 15.34 -3 14.68 -3 14 C-3.763125 14.0825 -4.52625 14.165 -5.3125 14.25 C-8 14 -8 14 -9.875 12.5625 C-11.59100999 8.65381057 -10.73002063 5.11626088 -10 1 C-6.59437148 0.22157062 -3.49234244 -0.09978121 0 0 Z M-5 6 C-5 6.99 -5 7.98 -5 9 C-3.515 9.99 -3.515 9.99 -2 11 C-1.67 9.68 -1.34 8.36 -1 7 C-2.32 6.67 -3.64 6.34 -5 6 Z M-8 7 C-7 9 -7 9 -7 9 Z M-7 9 C-6.34 9.66 -5.68 10.32 -5 11 C-5 10.34 -5 9.68 -5 9 C-5.66 9 -6.32 9 -7 9 Z " fill="#15131E" transform="translate(299,226)"/>
<path d="M0 0 C0.33 0.66 0.66 1.32 1 2 C2.65 1.67 4.3 1.34 6 1 C7.5625 2.8125 7.5625 2.8125 9 5 C8.67 5.99 8.34 6.98 8 8 C6.35 8.33 4.7 8.66 3 9 C3 8.34 3 7.68 3 7 C2.34 7.66 1.68 8.32 1 9 C1.99 9.66 2.98 10.32 4 11 C5.32 10.34 6.64 9.68 8 9 C8.33 10.65 8.66 12.3 9 14 C3.7508868 16.6245566 0.47607111 15.55155348 -5 14 C-5.125 6.375 -5.125 6.375 -4 3 C-3.01 2.67 -2.02 2.34 -1 2 C-0.67 1.34 -0.34 0.68 0 0 Z " fill="#0D0F1A" transform="translate(112,225)"/>
<path d="M0 0 C2.00384991 3.00577487 3.26119742 5.84977264 4.625 9.1875 C5.07101563 10.27417969 5.51703125 11.36085937 5.9765625 12.48046875 C6.31429687 13.31191406 6.65203125 14.14335937 7 15 C3.85069107 16.04976964 1.61185544 16.10131595 -1.6875 16.0625 C-2.68136719 16.05347656 -3.67523438 16.04445312 -4.69921875 16.03515625 C-5.83810547 16.01775391 -5.83810547 16.01775391 -7 16 C-6.71517632 14.58194169 -6.42181856 13.16559621 -6.125 11.75 C-5.96257813 10.96109375 -5.80015625 10.1721875 -5.6328125 9.359375 C-5.00555622 7.02071578 -4.15170572 5.12204047 -3 3 C-2.67 2.34 -2.34 1.68 -2 1 C-1.34 0.67 -0.68 0.34 0 0 Z " fill="#0D1123" transform="translate(45,225)"/>
<path d="M0 0 C2.97 0.99 5.94 1.98 9 3 C9 3.66 9 4.32 9 5 C8.01 5.495 8.01 5.495 7 6 C7.37125 6.721875 7.7425 7.44375 8.125 8.1875 C9 11 9 11 8.3125 13.75 C7 16 7 16 4 17 C1.8125 16.0625 1.8125 16.0625 0 15 C0 12.36 0 9.72 0 7 C-0.66 6.67 -1.32 6.34 -2 6 C-1.34 4.02 -0.68 2.04 0 0 Z " fill="#171523" transform="translate(305,225)"/>
<path d="M0 0 C0.33 0.66 0.66 1.32 1 2 C1.66 2.33 2.32 2.66 3 3 C2.67 3.66 2.34 4.32 2 5 C2.66 5.33 3.32 5.66 4 6 C4.8515625 7.84765625 4.8515625 7.84765625 5.625 10.0625 C5.88539063 10.79597656 6.14578125 11.52945313 6.4140625 12.28515625 C6.60742188 12.85105469 6.80078125 13.41695312 7 14 C4 15 4 15 1 14 C-1.00875442 14.27571139 -3.01178687 14.60235737 -5 15 C-6.25166274 11.38408541 -6.04783804 8.66743314 -5 5 C-2.4375 2.125 -2.4375 2.125 0 0 Z " fill="#121425" transform="translate(137,226)"/>
<path d="M0 0 C2.66698331 0.73853737 2.66698331 0.73853737 5.5625 -0.5 C5.8118357 1.10115576 6.03628648 2.70620159 6.25 4.3125 C6.37761719 5.20582031 6.50523437 6.09914063 6.63671875 7.01953125 C6.5625 9.5 6.5625 9.5 5.20703125 11.34375 C3.5625 12.5 3.5625 12.5 1.5625 12.1875 C0.9025 11.960625 0.2425 11.73375 -0.4375 11.5 C-1.4275 11.5 -2.4175 11.5 -3.4375 11.5 C-4.0120952 7.76513121 -4.4375 4.28706732 -4.4375 0.5 C-2.4375 -0.5 -2.4375 -0.5 0 0 Z " fill="#41876F" transform="translate(159.4375,253.5)"/>
<path d="M0 0 C1.32 0 2.64 0 4 0 C5.32 3.96 6.64 7.92 8 12 C4.50581737 13.16472754 2.5736062 12.6082734 -1 12 C-1.99 12.495 -1.99 12.495 -3 13 C-3.99 12.34 -4.98 11.68 -6 11 C-4.54780852 6.88545746 -2.71245508 3.4304579 0 0 Z " fill="#539581" transform="translate(180,253)"/>
<path d="M0 0 C2 3 2 3 2 5 C-3.28 5 -8.56 5 -14 5 C-14 9.29 -14 13.58 -14 18 C-14.66 18.33 -15.32 18.66 -16 19 C-16.02684312 16.18743719 -16.04676188 13.37512759 -16.0625 10.5625 C-16.07087891 9.76005859 -16.07925781 8.95761719 -16.08789062 8.13085938 C-16.0965143 6.08704779 -16.0522815 4.04316098 -16 2 C-15 1 -15 1 -11.875 0.9375 C-9.29166667 0.97916667 -6.70833333 1.02083333 -4.125 1.0625 C-1.1327033 1.36364533 -1.1327033 1.36364533 0 0 Z " fill="#2AAB9F" transform="translate(170,117)"/>
<path d="M0 0 C6.93 0.495 6.93 0.495 14 1 C13.67 2.32 13.34 3.64 13 5 C10.03 5 7.06 5 4 5 C4 8.63 4 12.26 4 16 C3.34 16.33 2.68 16.66 2 17 C2 14.36 2 11.72 2 9 C1.34 9 0.68 9 0 9 C0 6.03 0 3.06 0 0 Z " fill="#28AA9D" transform="translate(174,117)"/>
<path d="M0 0 C0.66 0 1.32 0 2 0 C-1.59790974 7.88441464 -7.96847039 11.79838646 -15.46484375 15.64453125 C-18.26217432 17.14017641 -20.63895467 18.88320074 -23 21 C-23.66 20.34 -24.32 19.68 -25 19 C-22.77815929 15.56161044 -20.7792803 14.15438642 -17.0625 12.5 C-13.29523692 10.73102429 -10.89452058 9.00172504 -8 6 C-7.13375 5.835 -6.2675 5.67 -5.375 5.5 C-4.199375 5.2525 -4.199375 5.2525 -3 5 C-1.69934079 3.06616713 -1.69934079 3.06616713 -1 1 C-0.67 0.67 -0.34 0.34 0 0 Z " fill="#3DA998" transform="translate(227,167)"/>
<path d="M0 0 C0.66 0 1.32 0 2 0 C2 0.66 2 1.32 2 2 C2.99 1.67 3.98 1.34 5 1 C5 3.66666667 5 6.33333333 5 9 C5.474375 9.474375 5.94875 9.94875 6.4375 10.4375 C8.25103592 12.25103592 8.57093295 13.51141113 9 16 C5.30458414 16.95024979 2.69541586 16.95024979 -1 16 C-0.814375 15.236875 -0.62875 14.47375 -0.4375 13.6875 C0.22819173 10.91032625 0.22819173 10.91032625 -1 8 C-0.71758117 5.6599583 -0.38749213 3.32495277 0 1 C0 0.67 0 0.34 0 0 Z M3 11 C3.33 11.66 3.66 12.32 4 13 C4.66 12.67 5.32 12.34 6 12 C5.01 11.67 4.02 11.34 3 11 Z " fill="#101424" transform="translate(225,225)"/>
<path d="M0 0 C0.99 0.33 1.98 0.66 3 1 C3.125 6.75 3.125 6.75 2 9 C4.0745356 10.2236068 4.0745356 10.2236068 7 10 C7 10.66 7 11.32 7 12 C7.66 12.33 8.32 12.66 9 13 C6.44931155 15.35448165 5.28982642 15.98327924 1.75 16.1875 C0.38875 16.0946875 0.38875 16.0946875 -1 16 C-1.76966439 11.28580561 -2.28110115 6.77871948 -2 2 C-1.34 1.34 -0.68 0.68 0 0 Z " fill="#0B0C18" transform="translate(215,226)"/>
<path d="M0 0 C2.375 0.625 2.375 0.625 5 2 C5.72693904 3.97888961 6.39816251 5.97954558 7 8 C7.99 8.33 8.98 8.66 10 9 C10 10.32 10 11.64 10 13 C10.66 13.33 11.32 13.66 12 14 C10.68 14 9.36 14 8 14 C7.67 13.67 7.34 13.34 7 13 C6.01 13 5.02 13 4 13 C3.13372601 11.40233897 2.28233535 9.79660056 1.4375 8.1875 C0.96183594 7.29417969 0.48617187 6.40085938 -0.00390625 5.48046875 C-1 3 -1 3 0 0 Z " fill="#48A598" transform="translate(133,162)"/>
<path d="M0 0 C0.33 0.66 0.66 1.32 1 2 C3.64 1.67 6.28 1.34 9 1 C10.09658936 4.28976808 9.79953138 5.71303767 9 9 C7.68 9.33 6.36 9.66 5 10 C4.67 9.01 4.34 8.02 4 7 C3.01732141 5.79438816 3.01732141 5.79438816 1.15234375 5.90234375 C-0.8984375 5.93489583 -2.94921875 5.96744792 -5 6 C-5 5.34 -5 4.68 -5 4 C-5.66 3.67 -6.32 3.34 -7 3 C-6 2 -6 2 -2.9375 1.9375 C-1.4834375 1.9684375 -1.4834375 1.9684375 0 2 C0 1.34 0 0.68 0 0 Z " fill="#41A79D" transform="translate(141,115)"/>
<path d="M0 0 C1.32 0.33 2.64 0.66 4 1 C4 4.96 4 8.92 4 13 C-1.02296004 14.13016601 -4.97874074 13.77916092 -10 13 C-10.33 10.69 -10.66 8.38 -11 6 C-10.34 7.32 -9.68 8.64 -9 10 C-5.37 10 -1.74 10 2 10 C1.34 6.7 0.68 3.4 0 0 Z " fill="#4EA193" transform="translate(144,147)"/>
<path d="M0 0 C2.625 1.4375 2.625 1.4375 5 3 C4.51917969 3.53109375 4.03835937 4.0621875 3.54296875 4.609375 C1.61619553 7.59465402 1.5041576 9.72350016 1.3125 13.25 C1.21388672 14.86648437 1.21388672 14.86648437 1.11328125 16.515625 C1.07589844 17.33546875 1.03851563 18.1553125 1 19 C0.01 19 -0.98 19 -2 19 C-2 13.06 -2 7.12 -2 1 C-1.34 0.67 -0.68 0.34 0 0 Z " fill="#22B29E" transform="translate(155,138)"/>
<path d="M0 0 C1.670625 0.061875 1.670625 0.061875 3.375 0.125 C3.705 1.445 4.035 2.765 4.375 4.125 C3.385 4.62 3.385 4.62 2.375 5.125 C1.90976937 7.02033342 1.90976937 7.02033342 1.75 9.1875 C1.564375 11.1365625 1.564375 11.1365625 1.375 13.125 C0.385 12.795 -0.605 12.465 -1.625 12.125 C-2.28515625 10.34765625 -2.28515625 10.34765625 -2.6875 8.1875 C-3.32761846 4.77397659 -3.32761846 4.77397659 -5.625 2.125 C-3.625 0.125 -3.625 0.125 0 0 Z " fill="#477D6E" transform="translate(200.625,252.875)"/>
<path d="M0 0 C0.66 0 1.32 0 2 0 C1.835 0.9075 1.67 1.815 1.5 2.75 C0.89862854 6.11087503 0.89862854 6.11087503 1 10 C0.67 10.66 0.34 11.32 0 12 C-0.804375 11.814375 -1.60875 11.62875 -2.4375 11.4375 C-3.283125 11.293125 -4.12875 11.14875 -5 11 C-5.33 11.33 -5.66 11.66 -6 12 C-7.99958364 12.04080783 -10.00045254 12.04254356 -12 12 C-12.33 10.35 -12.66 8.7 -13 7 C-12.34 7 -11.68 7 -11 7 C-10.34 7.66 -9.68 8.32 -9 9 C-9 8.34 -9 7.68 -9 7 C-6.36 7.33 -3.72 7.66 -1 8 C-1.020625 7.05125 -1.04125 6.1025 -1.0625 5.125 C-1 2 -1 2 0 0 Z " fill="#080615" transform="translate(285,229)"/>
<path d="M0 0 C0.33 0 0.66 0 1 0 C1.67548794 12.51529038 -0.08488728 23.3803626 -7 34 C-7.99 34 -8.98 34 -10 34 C-8.625 31.5 -8.625 31.5 -7 29 C-6.34 29 -5.68 29 -5 29 C-4.67 26.36 -4.34 23.72 -4 21 C-3.34 21 -2.68 21 -2 21 C-2.04125 19.7625 -2.0825 18.525 -2.125 17.25 C-2.14371192 11.38381252 -1.08918033 5.74737122 0 0 Z " fill="#41A598" transform="translate(238,132)"/>
<path d="M0 0 C2.32590854 3.63423209 2.16265833 6.77088331 2 11 C3.32 11 4.64 11 6 11 C6.99 12.485 6.99 12.485 8 14 C7 15 7 15 5.15234375 15.09765625 C3.1015625 15.06510417 1.05078125 15.03255208 -1 15 C-1.33 10.38 -1.66 5.76 -2 1 C-1.34 0.67 -0.68 0.34 0 0 Z " fill="#090B14" transform="translate(148,226)"/>
<path d="M0 0 C6.625 0.75 6.625 0.75 10 3 C9.360625 3.2475 8.72125 3.495 8.0625 3.75 C5.83323057 4.79331795 5.83323057 4.79331795 5.375 6.9375 C5.25125 7.618125 5.1275 8.29875 5 9 C4.01 10.485 4.01 10.485 3 12 C2.34 12 1.68 12 1 12 C0.67 11.01 0.34 10.02 0 9 C0.33 8.34 0.66 7.68 1 7 C0.34 6.67 -0.32 6.34 -1 6 C-0.67 4.02 -0.34 2.04 0 0 Z " fill="#130C21" transform="translate(244,229)"/>
<path d="M0 0 C1.2065625 0.0309375 1.2065625 0.0309375 2.4375 0.0625 C2.251875 0.619375 2.06625 1.17625 1.875 1.75 C1.2717948 4.08995166 1.2717948 4.08995166 2 6.5 C2.53511896 9.63426819 1.80564458 11.24573176 0.4375 14.0625 C-0.5525 14.0625 -1.5425 14.0625 -2.5625 14.0625 C-2.5625 12.0825 -2.5625 10.1025 -2.5625 8.0625 C-3.2225 8.0625 -3.8825 8.0625 -4.5625 8.0625 C-3.54737544 0.08652135 -3.54737544 0.08652135 0 0 Z M0.4375 5.0625 C1.4375 7.0625 1.4375 7.0625 1.4375 7.0625 Z " fill="#111422" transform="translate(239.5625,226.9375)"/>
<path d="M0 0 C-0.33 2.97 -0.66 5.94 -1 9 C-1.66 9 -2.32 9 -3 9 C-2.34 10.65 -1.68 12.3 -1 14 C-2.95216435 15.95216435 -4.53199953 16.84826645 -7 18 C-6.74488595 15.55990918 -6.47167322 13.12422942 -6.1875 10.6875 C-6.11724609 9.99720703 -6.04699219 9.30691406 -5.97460938 8.59570312 C-5.61882012 5.64976806 -5.32529685 3.44454314 -3.55078125 1.01953125 C-2 0 -2 0 0 0 Z " fill="#24AE9F" transform="translate(179,147)"/>
<path d="M0 0 C0.66 0.33 1.32 0.66 2 1 C1.34 4.3 0.68 7.6 0 11 C-2.64 10.67 -5.28 10.34 -8 10 C-8.33 10.99 -8.66 11.98 -9 13 C-9.66 11.35 -10.32 9.7 -11 8 C-9.68 8 -8.36 8 -7 8 C-4.79932579 7.06716704 -4.79932579 7.06716704 -3 6 C-3.33 5.34 -3.66 4.68 -4 4 C-3.67 3.01 -3.34 2.02 -3 1 C-2.01 0.67 -1.02 0.34 0 0 Z " fill="#1B1A27" transform="translate(284,226)"/>
<path d="M0 0 C0.99 0.33 1.98 0.66 3 1 C2.67 4.63 2.34 8.26 2 12 C2.66 12.33 3.32 12.66 4 13 C2.75 14.5625 2.75 14.5625 1 16 C-1.1875 15.6875 -1.1875 15.6875 -3 15 C-3 14.01 -3 13.02 -3 12 C-2.34 12 -1.68 12 -1 12 C-1.01160156 11.21753906 -1.02320313 10.43507812 -1.03515625 9.62890625 C-1.04417969 8.61699219 -1.05320313 7.60507813 -1.0625 6.5625 C-1.07410156 5.55316406 -1.08570313 4.54382813 -1.09765625 3.50390625 C-1 1 -1 1 0 0 Z " fill="#171625" transform="translate(167,226)"/>
<path d="M0 0 C0.33 0.66 0.66 1.32 1 2 C0.67 2.99 0.34 3.98 0 5 C2.31 5.33 4.62 5.66 7 6 C6.67 6.99 6.34 7.98 6 9 C3.4375 10.1875 3.4375 10.1875 1 11 C1 11.99 1 12.98 1 14 C0.01 14.33 -0.98 14.66 -2 15 C-2.05386629 12.87527424 -2.09273071 10.75016348 -2.125 8.625 C-2.14820312 7.44164062 -2.17140625 6.25828125 -2.1953125 5.0390625 C-2 2 -2 2 0 0 Z " fill="#4BBCA7" transform="translate(113,131)"/>
<path d="M0 0 C0.66 0 1.32 0 2 0 C2 0.99 2 1.98 2 3 C2.66 3 3.32 3 4 3 C4 3.66 4 4.32 4 5 C5.32 4.34 6.64 3.68 8 3 C9.5625 4.8125 9.5625 4.8125 11 7 C10.67 7.99 10.34 8.98 10 10 C8.081875 9.8453125 8.081875 9.8453125 6.125 9.6875 C5.04605469 9.60048828 5.04605469 9.60048828 3.9453125 9.51171875 C2 9 2 9 0 6 C-0.125 2.8125 -0.125 2.8125 0 0 Z " fill="#0B0B21" transform="translate(200,232)"/>
<path d="M0 0 C4.06036357 1.92333011 6.37347975 4.40069448 9 8 C5.52128379 9.15957207 4.65780355 8.77456651 1.3125 7.5625 C0.50425781 7.27503906 -0.30398437 6.98757812 -1.13671875 6.69140625 C-1.75160156 6.46324219 -2.36648437 6.23507813 -3 6 C-2.625 3.5625 -2.625 3.5625 -2 1 C-1.34 0.67 -0.68 0.34 0 0 Z " fill="#31B2A7" transform="translate(172,176)"/>
<path d="M0 0 C2.64 0 5.28 0 8 0 C8 0.99 8 1.98 8 3 C8.99 3 9.98 3 11 3 C11.6875 4.8125 11.6875 4.8125 12 7 C10.6875 8.75 10.6875 8.75 9 10 C8.34 10 7.68 10 7 10 C7 8.35 7 6.7 7 5 C4.36 4.34 1.72 3.68 -1 3 C-0.67 2.01 -0.34 1.02 0 0 Z " fill="#43B3A3" transform="translate(137,136)"/>
<path d="M0 0 C0.99 0 1.98 0 3 0 C3.33 4.29 3.66 8.58 4 13 C2.35 13.33 0.7 13.66 -1 14 C-1 10.88772805 -0.54372951 8.05847848 0 5 C-0.66 4.67 -1.32 4.34 -2 4 C-1.34 4 -0.68 4 0 4 C0 2.68 0 1.36 0 0 Z " fill="#121622" transform="translate(124,227)"/>
<path d="M0 0 C2.475 0.495 2.475 0.495 5 1 C5.33 3.31 5.66 5.62 6 8 C7.98 8.66 9.96 9.32 12 10 C10.68 11.65 9.36 13.3 8 15 C6.35 14.67 4.7 14.34 3 14 C3.03480469 13.15695313 3.06960937 12.31390625 3.10546875 11.4453125 C3.13253906 10.34960938 3.15960938 9.25390625 3.1875 8.125 C3.22230469 7.03445312 3.25710937 5.94390625 3.29296875 4.8203125 C3.14794922 3.42425781 3.14794922 3.42425781 3 2 C2.01 1.34 1.02 0.68 0 0 Z " fill="#47ADA0" transform="translate(182,185)"/>
<path d="M0 0 C3.63 0 7.26 0 11 0 C11 1.65 11 3.3 11 5 C6.71 5 2.42 5 -2 5 C-0.68 4.34 0.64 3.68 2 3 C2.33 2.34 2.66 1.68 3 1 C2.01 0.67 1.02 0.34 0 0 Z " fill="#53AF9D" transform="translate(117,136)"/>
<path d="M0 0 C-0.0625 1.8125 -0.0625 1.8125 -1 4 C-4.5625 5.75 -4.5625 5.75 -8 7 C-8.99 6.01 -9.98 5.02 -11 4 C-9.54643338 0.24495289 -9.54643338 0.24495289 -7.1875 -0.8125 C-4.61235122 -1.03322704 -2.49777315 -0.62444329 0 0 Z " fill="#3EB8A3" transform="translate(147,96)"/>
<path d="M0 0 C0.99 1.32 1.98 2.64 3 4 C1.59794495 6.80411009 -0.26727293 7.53830878 -3 9 C-5.3125 9.6875 -5.3125 9.6875 -7 10 C-7.4375 7.8125 -7.4375 7.8125 -7 5 C-4.86004673 3.01558218 -2.49824035 1.4976696 0 0 Z " fill="#56AE9B" transform="translate(129,101)"/>
<path d="M0 0 C0 0.66 0 1.32 0 2 C1.65 1.67 3.3 1.34 5 1 C3.1875 4 3.1875 4 1 7 C0.01 7 -0.98 7 -2 7 C-1.67 6.34 -1.34 5.68 -1 5 C-2.65 5.33 -4.3 5.66 -6 6 C-6.66 5.01 -7.32 4.02 -8 3 C-6.23110084 -0.53779831 -3.70375662 0 0 0 Z " fill="#151621" transform="translate(268,225)"/>
<path d="M0 0 C0.66 0.33 1.32 0.66 2 1 C1.67 1.66 1.34 2.32 1 3 C2.65 3 4.3 3 6 3 C6 3.99 6 4.98 6 6 C7.43750191 7.68798827 7.43750191 7.68798827 9 9 C6.36 9 3.72 9 1 9 C0.71125 8.21625 0.4225 7.4325 0.125 6.625 C-0.84912254 3.90328368 -0.84912254 3.90328368 -3 2 C-2.01 2 -1.02 2 0 2 C0 1.34 0 0.68 0 0 Z " fill="#3FB6A6" transform="translate(140,173)"/>
<path d="M0 0 C0 2.66420516 -0.09162237 4.52260646 -1 7 C-4 8 -4 8 -6.1875 7.0625 C-6.785625 6.711875 -7.38375 6.36125 -8 6 C-8 4.35 -8 2.7 -8 1 C-7.01 1 -6.02 1 -5 1 C-4.67 1.33 -4.34 1.66 -4 2 C-2.68 1.34 -1.36 0.68 0 0 Z " fill="#0E0D1D" transform="translate(313,234)"/>
<path d="M0 0 C0.66 0 1.32 0 2 0 C2 0.66 2 1.32 2 2 C3.134375 2.12375 4.26875 2.2475 5.4375 2.375 C6.613125 2.58125 7.78875 2.7875 9 3 C9.33 3.66 9.66 4.32 10 5 C8.329375 5.2165625 8.329375 5.2165625 6.625 5.4375 C3.17857953 5.78372035 3.17857953 5.78372035 1 7 C0.01 6.34 -0.98 5.68 -2 5 C-1.34 3.35 -0.68 1.7 0 0 Z " fill="#4E796B" transform="translate(176,259)"/>
<path d="M0 0 C0.94875 0.350625 1.8975 0.70125 2.875 1.0625 C3.205 2.7125 3.535 4.3625 3.875 6.0625 C-0.39843092 6.42879408 -2.61312804 5.47064077 -6.125 3.0625 C-5.795 2.0725 -5.465 1.0825 -5.125 0.0625 C-3.125 -0.9375 -3.125 -0.9375 0 0 Z " fill="#41AC9C" transform="translate(137.125,174.9375)"/>
<path d="M0 0 C1.32 0 2.64 0 4 0 C3.96519531 0.93972656 3.96519531 0.93972656 3.9296875 1.8984375 C3.91164062 2.71570313 3.89359375 3.53296875 3.875 4.375 C3.85179687 5.18710938 3.82859375 5.99921875 3.8046875 6.8359375 C3.78629949 9.21342243 3.78629949 9.21342243 6 11 C5.625 13.125 5.625 13.125 5 15 C4.67 14.01 4.34 13.02 4 12 C3.34 12 2.68 12 2 12 C1.67 10.68 1.34 9.36 1 8 C0.01 8.495 0.01 8.495 -1 9 C-1 7.02 -1 5.04 -1 3 C-0.01 3 0.98 3 2 3 C2 2.34 2 1.68 2 1 C1.34 0.67 0.68 0.34 0 0 Z " fill="#2FA99B" transform="translate(152,159)"/>
<path d="M0 0 C0.33 0 0.66 0 1 0 C2.04819354 7.45067301 1.91318843 13.7109102 0 21 C-0.99 20.67 -1.98 20.34 -3 20 C-2.34 20 -1.68 20 -1 20 C-1.14230808 18.58297487 -1.28900746 17.1663904 -1.4375 15.75 C-1.51871094 14.96109375 -1.59992188 14.1721875 -1.68359375 13.359375 C-1.93490397 11.00462654 -1.93490397 11.00462654 -2.66015625 8.828125 C-2.77230469 8.22484375 -2.88445312 7.6215625 -3 7 C-2.34 6.34 -1.68 5.68 -1 5 C-0.35232207 2.42938689 -0.35232207 2.42938689 0 0 Z " fill="#2FBAAB" transform="translate(194,132)"/>
<path d="M0 0 C2.97 0.495 2.97 0.495 6 1 C6.33 3.64 6.66 6.28 7 9 C5.68 9.33 4.36 9.66 3 10 C2.67 8.68 2.34 7.36 2 6 C1.34 6.99 0.68 7.98 0 9 C0 6.03 0 3.06 0 0 Z " fill="#39A293" transform="translate(150,98)"/>
<path d="M0 0 C0.66 0.33 1.32 0.66 2 1 C2 3.97 2 6.94 2 10 C2.99 10.33 3.98 10.66 5 11 C3.35 11.66 1.7 12.32 0 13 C-2.13586678 9.79619983 -2.23132175 8.98060033 -2.125 5.3125 C-2.10695312 4.50425781 -2.08890625 3.69601562 -2.0703125 2.86328125 C-2.04710937 2.24839844 -2.02390625 1.63351563 -2 1 C-1.34 0.67 -0.68 0.34 0 0 Z " fill="#416B5F" transform="translate(157,253)"/>
<path d="M0 0 C0.4125 0.495 0.825 0.99 1.25 1.5 C3.12202338 3.43386092 3.12202338 3.43386092 7 3 C6.67 4.32 6.34 5.64 6 7 C3.69 7.33 1.38 7.66 -1 8 C-1.68707555 5.50935112 -2 3.62113708 -2 1 C-1.34 0.67 -0.68 0.34 0 0 Z " fill="#050914" transform="translate(133,233)"/>
<path d="M0 0 C0.99 0.33 1.98 0.66 3 1 C4.1875 3.5625 4.1875 3.5625 5 6 C1.30581799 7.231394 -1.2056261 6.64432764 -5 6 C-4.67 4.68 -4.34 3.36 -4 2 C-2.68 2 -1.36 2 0 2 C0 1.34 0 0.68 0 0 Z " fill="#080A13" transform="translate(47,234)"/>
<path d="M0 0 C0.66 0.66 1.32 1.32 2 2 C2.66 1.67 3.32 1.34 4 1 C4.144375 1.7425 4.28875 2.485 4.4375 3.25 C4.94197586 5.91286562 4.94197586 5.91286562 5.625 8.125 C6 10 6 10 5 13 C4.34 12.67 3.68 12.34 3 12 C3 10.68 3 9.36 3 8 C2.34 7.67 1.68 7.34 1 7 C0.67 7.66 0.34 8.32 0 9 C0 6.03 0 3.06 0 0 Z " fill="#409F90" transform="translate(150,165)"/>
<path d="M0 0 C2.3125 1.375 2.3125 1.375 3.3125 4.375 C2.3225 4.375 1.3325 4.375 0.3125 4.375 C-1.36986471 5.00099617 -3.0398962 5.66252268 -4.6875 6.375 C-5.3475 5.055 -6.0075 3.735 -6.6875 2.375 C-3.40003602 -0.79070605 -3.40003602 -0.79070605 0 0 Z " fill="#090813" transform="translate(78.6875,225.625)"/>
<path d="M0 0 C0.33 0.99 0.66 1.98 1 3 C1.99 3 2.98 3 4 3 C4 3.66 4 4.32 4 5 C4.99 5.33 5.98 5.66 7 6 C6.67 7.65 6.34 9.3 6 11 C5.01 10.67 4.02 10.34 3 10 C3.33 9.01 3.66 8.02 4 7 C2.02 7 0.04 7 -2 7 C-1.34 4.69 -0.68 2.38 0 0 Z " fill="#30BBAA" transform="translate(184,111)"/>
<path d="M0 0 C4.42857143 5.14285714 4.42857143 5.14285714 5 9 C1.30458414 9.95024979 -1.30458414 9.95024979 -5 9 C-4.67 8.01 -4.34 7.02 -4 6 C-3.34 6.33 -2.68 6.66 -2 7 C-1.01 6.34 -0.02 5.68 1 5 C0.34 4.67 -0.32 4.34 -1 4 C-0.67 2.68 -0.34 1.36 0 0 Z " fill="#060915" transform="translate(229,232)"/>
<path d="M0 0 C3.375 4.5 3.375 4.5 3.1875 8.75 C3.16042969 9.54921875 3.13335937 10.3484375 3.10546875 11.171875 C3.07066406 11.77515625 3.03585938 12.3784375 3 13 C1.68 12.67 0.36 12.34 -1 12 C-0.67 8.04 -0.34 4.08 0 0 Z " fill="#121222" transform="translate(72,229)"/>
<path d="M0 0 C0.99 0.66 1.98 1.32 3 2 C3.40843923 4.71203652 3.13336867 7.2437142 3 10 C1.02 10 -0.96 10 -3 10 C-2.01 6.7 -1.02 3.4 0 0 Z " fill="#4CBAAC" transform="translate(121,107)"/>
<path d="M0 0 C0.33 0 0.66 0 1 0 C1 4.62 1 9.24 1 14 C0.01 14 -0.98 14 -2 14 C-2.33 10.7 -2.66 7.4 -3 4 C-2.01 4 -1.02 4 0 4 C0 2.68 0 1.36 0 0 Z " fill="#151524" transform="translate(102,226)"/>
<path d="M0 0 C2.61047801 1.305239 2.68066423 2.35826574 3.625 5.0625 C3.88539063 5.79597656 4.14578125 6.52945313 4.4140625 7.28515625 C4.60742188 7.85105469 4.80078125 8.41695312 5 9 C4.01 9.33 3.02 9.66 2 10 C1.71125 9.360625 1.4225 8.72125 1.125 8.0625 C0.17176549 5.84793921 0.17176549 5.84793921 -2 5 C-2.625 2.9375 -2.625 2.9375 -3 1 C-2.01 0.67 -1.02 0.34 0 0 Z " fill="#0C0F1D" transform="translate(139,231)"/>
<path d="M0 0 C-0.33 0.99 -0.66 1.98 -1 3 C-1.66 3 -2.32 3 -3 3 C-3.66 4.32 -4.32 5.64 -5 7 C-8 5 -8 5 -8.6875 2.875 C-8.790625 2.25625 -8.89375 1.6375 -9 1 C-5.57367167 -0.61798838 -3.61944899 -1.34053666 0 0 Z " fill="#04081D" transform="translate(62,230)"/>
<path d="M0 0 C-0.33 2.64 -0.66 5.28 -1 8 C-2.32 7.34 -3.64 6.68 -5 6 C-5.33 6.33 -5.66 6.66 -6 7 C-8 5 -8 5 -9 2 C-8.401875 1.855625 -7.80375 1.71125 -7.1875 1.5625 C-1.11111111 0 -1.11111111 0 0 0 Z " fill="#0B0B14" transform="translate(212,226)"/>
<path d="M0 0 C0.33 0 0.66 0 1 0 C1 1.98 1 3.96 1 6 C1.99 5.67 2.98 5.34 4 5 C4.33 5.99 4.66 6.98 5 8 C4.21625 8.268125 3.4325 8.53625 2.625 8.8125 C-0.28114923 9.84814432 -0.28114923 9.84814432 -2 13 C-2.19294408 8.17639811 -1.75747614 4.50353262 0 0 Z " fill="#41A89F" transform="translate(152,102)"/>
<path d="M0 0 C0.99 0.33 1.98 0.66 3 1 C3.33 2.65 3.66 4.3 4 6 C4.99 6.33 5.98 6.66 7 7 C6.67 8.65 6.34 10.3 6 12 C5.34 12 4.68 12 4 12 C3.87625 11.38125 3.7525 10.7625 3.625 10.125 C3.12802644 7.80879168 3.12802644 7.80879168 1 6 C0.67 5.01 0.34 4.02 0 3 C-0.66 2.34 -1.32 1.68 -2 1 C-1.34 0.67 -0.68 0.34 0 0 Z " fill="#2CAFA3" transform="translate(168,104)"/>
<path d="M0 0 C-1.1875 2.5 -1.1875 2.5 -3 5 C-5.6875 5.3125 -5.6875 5.3125 -8 5 C-8 4.34 -8 3.68 -8 3 C-8.66 2.67 -9.32 2.34 -10 2 C-8.71211992 1.46987262 -7.41953322 0.9511671 -6.125 0.4375 C-5.40570313 0.14746094 -4.68640625 -0.14257812 -3.9453125 -0.44140625 C-2 -1 -2 -1 0 0 Z " fill="#42A49A" transform="translate(177,95)"/>
<path d="M0 0 C2.09440189 3.40340307 2.25797575 6.04437178 2 10 C1.67 10.66 1.34 11.32 1 12 C0.34 12 -0.32 12 -1 12 C-1.33 8.37 -1.66 4.74 -2 1 C-1.34 0.67 -0.68 0.34 0 0 Z " fill="#181823" transform="translate(148,226)"/>
<path d="M0 0 C1.485 0.99 1.485 0.99 3 2 C3.99 2 4.98 2 6 2 C6.99 3.485 6.99 3.485 8 5 C5.6875 6.125 5.6875 6.125 3 7 C0 5 0 5 -0.75 2.9375 C-0.8325 2.298125 -0.915 1.65875 -1 1 C-0.67 0.67 -0.34 0.34 0 0 Z " fill="#202132" transform="translate(202,230)"/>
<path d="M0 0 C0.66 0 1.32 0 2 0 C0.59155282 3.21524305 -1.10344786 5.32183868 -3.625 7.75 C-4.57246094 8.67039063 -4.57246094 8.67039063 -5.5390625 9.609375 C-6.02117187 10.06828125 -6.50328125 10.5271875 -7 11 C-7.66 10.67 -8.32 10.34 -9 10 C-7.71937515 8.2925002 -6.38232443 6.62626404 -5 5 C-4.34 5 -3.68 5 -3 5 C-2.690625 4.360625 -2.38125 3.72125 -2.0625 3.0625 C-1 1 -1 1 0 0 Z " fill="#3CA092" transform="translate(227,167)"/>
<path d="M0 0 C0.33 0.66 0.66 1.32 1 2 C1.66 2.33 2.32 2.66 3 3 C5.22522523 9.32432432 5.22522523 9.32432432 4 13 C3.34 12.67 2.68 12.34 2 12 C1.375 9.9375 1.375 9.9375 1 8 C0.67 8 0.34 8 0 8 C0 5.36 0 2.72 0 0 Z " fill="#31B9AB" transform="translate(155,161)"/>
<path d="M0 0 C1.670625 0.061875 1.670625 0.061875 3.375 0.125 C3.705 1.445 4.035 2.765 4.375 4.125 C4.045 3.465 3.715 2.805 3.375 2.125 C0.3004644 2.9013932 0.3004644 2.9013932 -1.625 5.125 C-2.945 4.135 -4.265 3.145 -5.625 2.125 C-3.625 0.125 -3.625 0.125 0 0 Z " fill="#3E5E5A" transform="translate(200.625,252.875)"/>
<path d="M0 0 C4.05281712 1.22527029 7.44360764 2.69880494 11 5 C6.99799622 6.60080151 3.95443764 5.29279692 0 4 C0 2.68 0 1.36 0 0 Z " fill="#43B0A0" transform="translate(208,95)"/>
<path d="M0 0 C1.32 0 2.64 0 4 0 C3.67 1.98 3.34 3.96 3 6 C1.68 6 0.36 6 -1 6 C-1.625 4.125 -1.625 4.125 -2 2 C-1.34 1.34 -0.68 0.68 0 0 Z " fill="#407068" transform="translate(180,253)"/>
<path d="M0 0 C1.67542976 0.28604898 3.34385343 0.61781233 5 1 C4.67 1.99 4.34 2.98 4 4 C4.33 4.99 4.66 5.98 5 7 C2.03 6.505 2.03 6.505 -1 6 C-1.042721 4.33388095 -1.04063832 2.66617115 -1 1 C-0.67 0.67 -0.34 0.34 0 0 Z " fill="#3FBAA8" transform="translate(117,156)"/>
<path d="M0 0 C1.98 0 3.96 0 6 0 C5.29423828 0.58201172 5.29423828 0.58201172 4.57421875 1.17578125 C2.59007113 3.47502924 2.31466837 5.21311811 1.8125 8.1875 C1.65394531 9.08855469 1.49539062 9.98960937 1.33203125 10.91796875 C1.16767578 11.94857422 1.16767578 11.94857422 1 13 C0.67 13 0.34 13 0 13 C0 8.71 0 4.42 0 0 Z " fill="#2EBCAC" transform="translate(156,122)"/>
<path d="M0 0 C4.52048157 3.13922331 6.51545911 6.21495828 9 11 C8.01 11 7.02 11 6 11 C5.896875 10.360625 5.79375 9.72125 5.6875 9.0625 C5.460625 8.381875 5.23375 7.70125 5 7 C4.01 6.67 3.02 6.34 2 6 C0 3 0 3 0 0 Z " fill="#41A495" transform="translate(224,105)"/>
<path d="M0 0 C1.61949011 2.57213134 2.04408751 3.67669159 1.625 6.75 C1.41875 7.4925 1.2125 8.235 1 9 C0.34 9 -0.32 9 -1 9 C-1.625 5.625 -1.625 5.625 -2 2 C-1.34 1.34 -0.68 0.68 0 0 Z " fill="#40847A" transform="translate(160,254)"/>
<path d="M0 0 C0.66 0.99 1.32 1.98 2 3 C-1.96 3 -5.92 3 -10 3 C-10 2.34 -10 1.68 -10 1 C-6.61292998 0.22581257 -3.47338282 -0.37550085 0 0 Z " fill="#51AB9F" transform="translate(148,160)"/>
<path d="M0 0 C0.66 0.33 1.32 0.66 2 1 C2 1.66 2 2.32 2 3 C2.33 3.99 2.66 4.98 3 6 C1.35 6.66 -0.3 7.32 -2 8 C-2 4.23312136 -1.76462683 3.08809695 0 0 Z " fill="#0B0D28" transform="translate(180,230)"/>
<path d="M0 0 C2.31 0.33 4.62 0.66 7 1 C6.01 1.33 5.02 1.66 4 2 C4.33 3.32 4.66 4.64 5 6 C4.01 6.495 4.01 6.495 3 7 C2.67 6.34 2.34 5.68 2 5 C1.34 5 0.68 5 0 5 C0 3.35 0 1.7 0 0 Z " fill="#3EBDAB" transform="translate(128,136)"/>
<path d="M0 0 C0.66 0.33 1.32 0.66 2 1 C1.67 3.31 1.34 5.62 1 8 C0.34 8 -0.32 8 -1 8 C-3 6 -3 6 -3.125 3.375 C-3.08375 2.59125 -3.0425 1.8075 -3 1 C-2.01 0.67 -1.02 0.34 0 0 Z " fill="#33B9A9" transform="translate(153,118)"/>
<path d="M0 0 C2.97 0.495 2.97 0.495 6 1 C6 1.66 6 2.32 6 3 C4.02 3.33 2.04 3.66 0 4 C0 4.99 0 5.98 0 7 C-1.5 5.625 -1.5 5.625 -3 4 C-3 3.34 -3 2.68 -3 2 C-2.01 2 -1.02 2 0 2 C0 1.34 0 0.68 0 0 Z " fill="#4CBDB6" transform="translate(135,114)"/>
<path d="M0 0 C1.32 0 2.64 0 4 0 C4.33 0.99 4.66 1.98 5 3 C4.01 3.33 3.02 3.66 2 4 C1.26676204 6.01508358 1.26676204 6.01508358 1 8 C0.01 7.67 -0.98 7.34 -2 7 C-1.34 6.01 -0.68 5.02 0 4 C0 2.68 0 1.36 0 0 Z " fill="#202027" transform="translate(249,232)"/>
<path d="M0 0 C2.97 0.33 5.94 0.66 9 1 C9.33 1.99 9.66 2.98 10 4 C6.7 3.34 3.4 2.68 0 2 C0 1.34 0 0.68 0 0 Z " fill="#40AB9C" transform="translate(171,181)"/>
<path d="M0 0 C2.02045442 0.60183749 4.02111039 1.27306096 6 2 C6.33 2.66 6.66 3.32 7 4 C4.36 4 1.72 4 -1 4 C-1 1 -1 1 0 0 Z " fill="#58B1A0" transform="translate(123,159)"/>
<path d="M0 0 C0.33 0.99 0.66 1.98 1 3 C1.66 3 2.32 3 3 3 C2.34 5.97 1.68 8.94 1 12 C0.34 11.67 -0.32 11.34 -1 11 C-0.67 7.37 -0.34 3.74 0 0 Z " fill="#27A79B" transform="translate(196,132)"/>
<path d="M0 0 C4.55384615 -0.36923077 4.55384615 -0.36923077 6.8125 1.5 C7.204375 1.995 7.59625 2.49 8 3 C7.67 3.66 7.34 4.32 7 5 C6.34 4.67 5.68 4.34 5 4 C2.0745356 3.7763932 2.0745356 3.7763932 0 5 C-0.33 4.01 -0.66 3.02 -1 2 C-0.67 1.34 -0.34 0.68 0 0 Z " fill="#050510" transform="translate(292,230)"/>
<path d="M0 0 C1.5625 1.8125 1.5625 1.8125 3 4 C2.67 4.99 2.34 5.98 2 7 C-0.0625 7.6875 -0.0625 7.6875 -2 8 C-1.125 1.125 -1.125 1.125 0 0 Z " fill="#13172D" transform="translate(46,228)"/>
<path d="M0 0 C0.66 0.33 1.32 0.66 2 1 C0.875 3.4375 0.875 3.4375 -1 6 C-4.1875 6.8125 -4.1875 6.8125 -7 7 C-2.25 1.125 -2.25 1.125 0 0 Z " fill="#31B19E" transform="translate(219,173)"/>
<path d="M0 0 C0.66 0 1.32 0 2 0 C2 0.99 2 1.98 2 3 C-3.02296004 4.13016601 -6.97874074 3.77916092 -12 3 C-11.67 2.34 -11.34 1.68 -11 1 C-10.28972656 1.01160156 -9.57945312 1.02320313 -8.84765625 1.03515625 C-7.92855469 1.04417969 -7.00945312 1.05320313 -6.0625 1.0625 C-4.68771484 1.07990234 -4.68771484 1.07990234 -3.28515625 1.09765625 C-1.03406673 1.25949049 -1.03406673 1.25949049 0 0 Z " fill="#3AA38E" transform="translate(146,157)"/>
<path d="M0 0 C0.66 0 1.32 0 2 0 C2.33 1.32 2.66 2.64 3 4 C3.66 4 4.32 4 5 4 C4.67 4.99 4.34 5.98 4 7 C2.35 6.67 0.7 6.34 -1 6 C-0.67 4.02 -0.34 2.04 0 0 Z " fill="#0B0C15" transform="translate(123,234)"/>
<path d="M0 0 C0.66 0.33 1.32 0.66 2 1 C-3.625 6 -3.625 6 -7 6 C-7 5.34 -7 4.68 -7 4 C-1.7265625 0.77734375 -1.7265625 0.77734375 0 0 Z " fill="#47A59C" transform="translate(201,188)"/>
<path d="M0 0 C0.33 0.66 0.66 1.32 1 2 C0.0625 4.125 0.0625 4.125 -1 6 C-2.98 5.34 -4.96 4.68 -7 4 C-4.61426621 2.10786631 -2.92824652 0.97608217 0 0 Z " fill="#33BBA8" transform="translate(166,176)"/>
<path d="M0 0 C1.65 0.33 3.3 0.66 5 1 C4.67 2.32 4.34 3.64 4 5 C2.35 5 0.7 5 -1 5 C-0.67 3.35 -0.34 1.7 0 0 Z " fill="#43C0AE" transform="translate(142,95)"/>
<path d="M0 0 C2.9375 0.375 2.9375 0.375 6 1 C6.33 1.66 6.66 2.32 7 3 C5.02 3.33 3.04 3.66 1 4 C0.67 2.68 0.34 1.36 0 0 Z " fill="#3A925D" transform="translate(179,261)"/>
<path d="M0 0 C0.66 0 1.32 0 2 0 C2 1.98 2 3.96 2 6 C1.01 6.495 1.01 6.495 0 7 C0 6.34 0 5.68 0 5 C-0.66 5 -1.32 5 -2 5 C-1.125 1.125 -1.125 1.125 0 0 Z " fill="#337564" transform="translate(163,253)"/>
<path d="M0 0 C2.475 0.99 2.475 0.99 5 2 C3.68 3.32 2.36 4.64 1 6 C0.34 5.01 -0.32 4.02 -1 3 C-0.67 2.01 -0.34 1.02 0 0 Z " fill="#45ABA0" transform="translate(133,162)"/>
<path d="M0 0 C0.66 0 1.32 0 2 0 C1.34 2.31 0.68 4.62 0 7 C0.66 7.33 1.32 7.66 2 8 C1.34 8 0.68 8 0 8 C-0.33 8.66 -0.66 9.32 -1 10 C-2 9 -2 9 -2.0625 6.4375 C-2.041875 5.633125 -2.02125 4.82875 -2 4 C-1.34 4 -0.68 4 0 4 C0 2.68 0 1.36 0 0 Z " fill="#2DBBAB" transform="translate(198,143)"/>
<path d="M0 0 C0.99 0.33 1.98 0.66 3 1 C4.25 3.9375 4.25 3.9375 5 7 C4.67 7.66 4.34 8.32 4 9 C3.67 8.01 3.34 7.02 3 6 C2.34 6 1.68 6 1 6 C0.67 4.02 0.34 2.04 0 0 Z " fill="#191821" transform="translate(297,226)"/>
<path d="M0 0 C0 1.65 0 3.3 0 5 C-1.65 5 -3.3 5 -5 5 C-4.6875 3.0625 -4.6875 3.0625 -4 1 C-1 0 -1 0 0 0 Z " fill="#32B8A8" transform="translate(153,139)"/>
<path d="M0 0 C1.32 0 2.64 0 4 0 C4.33 1.65 4.66 3.3 5 5 C3.35 4.67 1.7 4.34 0 4 C-0.33 3.01 -0.66 2.02 -1 1 C-0.67 0.67 -0.34 0.34 0 0 Z " fill="#101521" transform="translate(179,237)"/>
<path d="M0 0 C0.99 1.485 0.99 1.485 2 3 C2.99 3.33 3.98 3.66 5 4 C5 4.99 5 5.98 5 7 C3.35 6.67 1.7 6.34 0 6 C0 4.02 0 2.04 0 0 Z " fill="#161927" transform="translate(109,233)"/>
<path d="M0 0 C0 0.66 0 1.32 0 2 C-0.66 2.66 -1.32 3.32 -2 4 C-4.125 3.625 -4.125 3.625 -6 3 C-6 2.01 -6 1.02 -6 0 C-2.25 -1.125 -2.25 -1.125 0 0 Z " fill="#090A16" transform="translate(296,236)"/>
<path d="M0 0 C1.65 0.33 3.3 0.66 5 1 C2.94766315 3.2477975 1.99332739 4.0022242 -1 5 C-1.66 4.34 -2.32 3.68 -3 3 C-2.34 3 -1.68 3 -1 3 C-0.67 2.01 -0.34 1.02 0 0 Z " fill="#1C1C2E" transform="translate(264,232)"/>
<path d="M0 0 C6.625 0.75 6.625 0.75 10 3 C5.82412255 4.39195915 3.86525224 2.82323219 0 1 C0 0.67 0 0.34 0 0 Z " fill="#0D0C11" transform="translate(244,229)"/>
<path d="M0 0 C1.32 0.33 2.64 0.66 4 1 C0.535 3.97 0.535 3.97 -3 7 C-3 3.48283697 -2.17554415 2.62878252 0 0 Z " fill="#31BEAD" transform="translate(225,166)"/>
<path d="M0 0 C0.99 0.99 1.98 1.98 3 3 C1.35 4.65 -0.3 6.3 -2 8 C-1.125 1.125 -1.125 1.125 0 0 Z " fill="#31B6A5" transform="translate(157,139)"/>
<path d="M0 0 C0.66 0 1.32 0 2 0 C2 0.66 2 1.32 2 2 C2.99 2 3.98 2 5 2 C5.66 3.32 6.32 4.64 7 6 C5.68 6 4.36 6 3 6 C0 2.78571429 0 2.78571429 0 0 Z " fill="#34BDB0" transform="translate(177,104)"/>
<path d="M0 0 C1.5 1.375 1.5 1.375 3 3 C3 3.66 3 4.32 3 5 C1.02 5 -0.96 5 -3 5 C-2.01 3.35 -1.02 1.7 0 0 Z " fill="#10101F" transform="translate(207,235)"/>
<path d="M0 0 C1.98 0.495 1.98 0.495 4 1 C4 3.31 4 5.62 4 8 C0 3.375 0 3.375 0 0 Z " fill="#07070F" transform="translate(257,232)"/>
<path d="M0 0 C0 0.99 0 1.98 0 3 C-2.31 3.33 -4.62 3.66 -7 4 C-6.67 3.01 -6.34 2.02 -6 1 C-4.02 0.67 -2.04 0.34 0 0 Z " fill="#131521" transform="translate(96,232)"/>
<path d="M0 0 C2 2 2 2 2 4 C-0.375 4.625 -0.375 4.625 -3 5 C-3.66 4.34 -4.32 3.68 -5 3 C-3.35 2.01 -1.7 1.02 0 0 Z " fill="#0D0619" transform="translate(269,233)"/>
<path d="M0 0 C0.33 0 0.66 0 1 0 C1 2.64 1 5.28 1 8 C0.01 8.495 0.01 8.495 -1 9 C-1.625 5.625 -1.625 5.625 -2 2 C-1.34 1.34 -0.68 0.68 0 0 Z " fill="#15192B" transform="translate(215,226)"/>
<path d="M0 0 C-0.99 1.485 -0.99 1.485 -2 3 C-2.66 3 -3.32 3 -4 3 C-5.625 1 -5.625 1 -7 -1 C-3.51418144 -2.2020064 -3.32007656 -2.21338437 0 0 Z " fill="#2CB3A5" transform="translate(189,141)"/>
<path d="M0 0 C0.33 0.66 0.66 1.32 1 2 C0.67 2.99 0.34 3.98 0 5 C0.99 5.33 1.98 5.66 3 6 C1.35 6.33 -0.3 6.66 -2 7 C-2.125 4.625 -2.125 4.625 -2 2 C-1.34 1.34 -0.68 0.68 0 0 Z " fill="#5BBCAA" transform="translate(113,131)"/>
<path d="M0 0 C0.66 0 1.32 0 2 0 C2.36923077 4.55384615 2.36923077 4.55384615 0.5 6.8125 C0.005 7.204375 -0.49 7.59625 -1 8 C-1.125 2.25 -1.125 2.25 0 0 Z " fill="#42ADA6" transform="translate(145,127)"/>
<path d="M0 0 C0.33 0 0.66 0 1 0 C1 1.98 1 3.96 1 6 C0.34 6 -0.32 6 -1 6 C-1.66 6.66 -2.32 7.32 -3 8 C-3 7.34 -3 6.68 -3 6 C-3.66 5.67 -4.32 5.34 -5 5 C-3.35 4.67 -1.7 4.34 0 4 C-0.33 3.01 -0.66 2.02 -1 1 C-0.67 0.67 -0.34 0.34 0 0 Z " fill="#31B4A5" transform="translate(157,106)"/>
<path d="M0 0 C0.33 0 0.66 0 1 0 C1 1.65 1 3.3 1 5 C0.34 3.68 -0.32 2.36 -1 1 C-0.67 0.67 -0.34 0.34 0 0 Z " fill="#0F0F30" transform="translate(235,236)"/>
<path d="M0 0 C1 4 1 4 1 4 Z " fill="#000000" transform="translate(190,236)"/>
<path d="M0 0 C1 4 1 4 1 4 Z " fill="#000000" transform="translate(105,234)"/>
<path d="M0 0 C0 3 0 3 0 3 Z " fill="#0A0A0A" transform="translate(38,235)"/>
<path d="M0 0 C0.99 0.495 0.99 0.495 2 1 C1.67 1.66 1.34 2.32 1 3 C0.67 2.01 0.34 1.02 0 0 Z " fill="#110617" transform="translate(85,228)"/>
<path d="" fill="#000000" transform="translate(0,0)"/>
<path d="M0 0 C0.66 0.66 1.32 1.32 2 2 C1.34 2 0.68 2 0 2 C0 1.34 0 0.68 0 0 Z " fill="#000000" transform="translate(86,237)"/>
<path d="" fill="#111111" transform="translate(0,0)"/>
<path d="M0 0 C0.66 0.66 1.32 1.32 2 2 C1.34 2 0.68 2 0 2 C0 1.34 0 0.68 0 0 Z " fill="#00001C" transform="translate(171,226)"/>
<path d="M0 0 C0.99 0.495 0.99 0.495 2 1 C1.01 1.495 1.01 1.495 0 2 C0 1.34 0 0.68 0 0 Z " fill="#000015" transform="translate(134,226)"/>
<path d="M0 0 C3 1 3 1 3 1 Z " fill="#1A1A1A" transform="translate(124,225)"/>
<path d="M0 0 C3 1 3 1 3 1 Z " fill="#090909" transform="translate(114,225)"/>
<path d="" fill="#000000" transform="translate(0,0)"/>
<path d="" fill="#000000" transform="translate(0,0)"/>
<path d="" fill="#000000" transform="translate(0,0)"/>
<path d="" fill="#00002A" transform="translate(0,0)"/>
<path d="" fill="#000000" transform="translate(0,0)"/>
<path d="" fill="#000000" transform="translate(0,0)"/>
<path d="" fill="#000020" transform="translate(0,0)"/>
<path d="" fill="#151515" transform="translate(0,0)"/>
<path d="" fill="#000000" transform="translate(0,0)"/>
<path d="" fill="#000015" transform="translate(0,0)"/>
<path d="M0 0 C2 1 2 1 2 1 Z " fill="#0D0D19" transform="translate(310,225)"/>
<path d="M0 0 C2 1 2 1 2 1 Z " fill="#000020" transform="translate(292,225)"/>
<path d="M0 0 C2 1 2 1 2 1 Z " fill="#0B0B17" transform="translate(238,225)"/>
<path d="M0 0 C2 1 2 1 2 1 Z " fill="#000020" transform="translate(59,225)"/>
<path d="M0 0 C2 1 2 1 2 1 Z " fill="#000000" transform="translate(56,225)"/>
<path d="" fill="#808080" transform="translate(0,0)"/>
<path d="" fill="#496D6D" transform="translate(0,0)"/>
<path d="" fill="#000000" transform="translate(0,0)"/>
<path d="" fill="#000000" transform="translate(0,0)"/>
<path d="" fill="#000000" transform="translate(0,0)"/>
<path d="" fill="#000000" transform="translate(0,0)"/>
<path d="" fill="#000000" transform="translate(0,0)"/>
<path d="" fill="#000000" transform="translate(0,0)"/>
<path d="" fill="#000000" transform="translate(0,0)"/>
<path d="" fill="#333333" transform="translate(0,0)"/>
<path d="" fill="#000040" transform="translate(0,0)"/>
<path d="" fill="#000000" transform="translate(0,0)"/>
<path d="" fill="#000000" transform="translate(0,0)"/>
<path d="" fill="#000000" transform="translate(0,0)"/>
<path d="" fill="#000055" transform="translate(0,0)"/>
<path d="" fill="#000000" transform="translate(0,0)"/>
<path d="" fill="#000000" transform="translate(0,0)"/>
<path d="" fill="#000000" transform="translate(0,0)"/>
<path d="" fill="#000000" transform="translate(0,0)"/>
<path d="" fill="#000040" transform="translate(0,0)"/>
<path d="" fill="#000000" transform="translate(0,0)"/>
<path d="" fill="#2B2B2B" transform="translate(0,0)"/>
<path d="" fill="#000000" transform="translate(0,0)"/>
<path d="" fill="#000000" transform="translate(0,0)"/>
<path d="" fill="#000000" transform="translate(0,0)"/>
<path d="" fill="#000000" transform="translate(0,0)"/>
<path d="" fill="#000000" transform="translate(0,0)"/>
<path d="" fill="#000000" transform="translate(0,0)"/>
<path d="" fill="#000000" transform="translate(0,0)"/>
<path d="" fill="#333333" transform="translate(0,0)"/>
<path d="" fill="#000000" transform="translate(0,0)"/>
<path d="" fill="#202020" transform="translate(0,0)"/>
<path d="" fill="#333333" transform="translate(0,0)"/>
<path d="" fill="#000000" transform="translate(0,0)"/>
<path d="" fill="#000000" transform="translate(0,0)"/>
<path d="" fill="#000000" transform="translate(0,0)"/>
<path d="" fill="#000000" transform="translate(0,0)"/>
<path d="" fill="#000040" transform="translate(0,0)"/>
<path d="" fill="#000000" transform="translate(0,0)"/>
<path d="" fill="#000000" transform="translate(0,0)"/>
<path d="" fill="#333333" transform="translate(0,0)"/>
<path d="" fill="#000033" transform="translate(0,0)"/>
<path d="" fill="#000000" transform="translate(0,0)"/>
<path d="" fill="#000000" transform="translate(0,0)"/>
<path d="" fill="#000000" transform="translate(0,0)"/>
<path d="" fill="#000000" transform="translate(0,0)"/>
<path d="" fill="#331A33" transform="translate(0,0)"/>
<path d="" fill="#000000" transform="translate(0,0)"/>
<path d="" fill="#000000" transform="translate(0,0)"/>
<path d="" fill="#000000" transform="translate(0,0)"/>
<path d="" fill="#1C1C1C" transform="translate(0,0)"/>
<path d="" fill="#000000" transform="translate(0,0)"/>
<path d="" fill="#000000" transform="translate(0,0)"/>
<path d="" fill="#000000" transform="translate(0,0)"/>
<path d="" fill="#000000" transform="translate(0,0)"/>
<path d="" fill="#000000" transform="translate(0,0)"/>
<path d="" fill="#333333" transform="translate(0,0)"/>
<path d="" fill="#000055" transform="translate(0,0)"/>
<path d="" fill="#333333" transform="translate(0,0)"/>
<path d="" fill="#2B2B2B" transform="translate(0,0)"/>
<path d="" fill="#000000" transform="translate(0,0)"/>
<path d="" fill="#000000" transform="translate(0,0)"/>
<path d="" fill="#000000" transform="translate(0,0)"/>
<path d="" fill="#000000" transform="translate(0,0)"/>
<path d="" fill="#000000" transform="translate(0,0)"/>
<path d="" fill="#000000" transform="translate(0,0)"/>
<path d="" fill="#000000" transform="translate(0,0)"/>
<path d="" fill="#242424" transform="translate(0,0)"/>
<path d="" fill="#333333" transform="translate(0,0)"/>
<path d="" fill="#000000" transform="translate(0,0)"/>
<path d="" fill="#000000" transform="translate(0,0)"/>
<path d="" fill="#000000" transform="translate(0,0)"/>
<path d="" fill="#171717" transform="translate(0,0)"/>
<path d="" fill="#00FF00" transform="translate(0,0)"/>
</svg>
